<?xml version="1.0" encoding="UTF-8"?>
<svg width="605px" height="120px" viewBox="0 0 605 120" version="1.1" xmlns="http://www.w3.org/2000/svg" xmlns:xlink="http://www.w3.org/1999/xlink">
    <title>BetterSafariView-Logotype</title>
    <g id="BetterSafariView-Logotype" stroke="none" stroke-width="1" fill="none" fill-rule="evenodd">
        <path d="M51.1152344,86 C61.9433594,86 68.6582031,80.4101562 68.6582031,71.4804688 L68.6582031,71.4101562 C68.6582031,64.7304688 63.5605469,59.703125 56.4941406,59.1757812 L56.4941406,58.9648438 C62.0488281,58.2265625 66.2324219,53.515625 66.2324219,47.9960938 L66.2324219,47.9257812 C66.2324219,40.15625 60.2558594,35.2695312 50.7285156,35.2695312 L28.6503906,35.2695312 L28.6503906,86 L51.1152344,86 Z M46.8964844,56.2578125 L39.2675781,56.2578125 L39.2675781,43.1445312 L47.9863281,43.1445312 C52.9082031,43.1445312 55.7910156,45.4648438 55.7910156,49.4726562 L55.7910156,49.5429688 C55.7910156,53.7617188 52.5566406,56.2578125 46.8964844,56.2578125 Z M48.4082031,78.0898438 L39.2675781,78.0898438 L39.2675781,63.4648438 L48.1621094,63.4648438 C54.4199219,63.4648438 57.8300781,65.9960938 57.8300781,70.7070312 L57.8300781,70.7773438 C57.8300781,75.5585938 54.4902344,78.0898438 48.4082031,78.0898438 Z M90.9824219,86.7734375 C101.740234,86.7734375 106.943359,80.4101562 108.103516,74.8554688 L108.208984,74.46875 L98.7871094,74.46875 L98.7167969,74.6796875 C97.9785156,76.7890625 95.4121094,79.109375 91.1933594,79.109375 C85.9550781,79.109375 82.6855469,75.59375 82.5800781,69.5820312 L108.525391,69.5820312 L108.525391,66.4179688 C108.525391,55.0273438 101.599609,47.5390625 90.5605469,47.5390625 C79.5214844,47.5390625 72.4550781,55.203125 72.4550781,67.1914062 L72.4550781,67.2265625 C72.4550781,79.2851562 79.4511719,86.7734375 90.9824219,86.7734375 Z M98.6816406,63.1132812 L82.6855469,63.1132812 C83.3535156,58.015625 86.5175781,55.203125 90.7363281,55.203125 C94.9902344,55.203125 98.0488281,57.9101562 98.6816406,63.1132812 Z M128.775391,86.7734375 C130.919922,86.7734375 132.572266,86.5625 133.732422,86.3867188 L133.732422,78.8632812 C133.099609,78.9335938 132.431641,79.0390625 131.517578,79.0390625 C128.423828,79.0390625 126.841797,77.84375 126.841797,74.328125 L126.841797,56.046875 L133.732422,56.046875 L133.732422,48.3125 L126.841797,48.3125 L126.841797,39.1015625 L116.470703,39.1015625 L116.470703,48.3125 L111.232422,48.3125 L111.232422,56.046875 L116.470703,56.046875 L116.470703,75.453125 C116.470703,83.5390625 120.408203,86.7734375 128.775391,86.7734375 Z M154.369141,86.7734375 C156.513672,86.7734375 158.166016,86.5625 159.326172,86.3867188 L159.326172,78.8632812 C158.693359,78.9335938 158.025391,79.0390625 157.111328,79.0390625 C154.017578,79.0390625 152.435547,77.84375 152.435547,74.328125 L152.435547,56.046875 L159.326172,56.046875 L159.326172,48.3125 L152.435547,48.3125 L152.435547,39.1015625 L142.064453,39.1015625 L142.064453,48.3125 L136.826172,48.3125 L136.826172,56.046875 L142.064453,56.046875 L142.064453,75.453125 C142.064453,83.5390625 146.001953,86.7734375 154.369141,86.7734375 Z M181.615234,86.7734375 C192.373047,86.7734375 197.576172,80.4101562 198.736328,74.8554688 L198.841797,74.46875 L189.419922,74.46875 L189.349609,74.6796875 C188.611328,76.7890625 186.044922,79.109375 181.826172,79.109375 C176.587891,79.109375 173.318359,75.59375 173.212891,69.5820312 L199.158203,69.5820312 L199.158203,66.4179688 C199.158203,55.0273438 192.232422,47.5390625 181.193359,47.5390625 C170.154297,47.5390625 163.087891,55.203125 163.087891,67.1914062 L163.087891,67.2265625 C163.087891,79.2851562 170.083984,86.7734375 181.615234,86.7734375 Z M189.314453,63.1132812 L173.318359,63.1132812 C173.986328,58.015625 177.150391,55.203125 181.369141,55.203125 C185.623047,55.203125 188.681641,57.9101562 189.314453,63.1132812 Z M214.697266,86 L214.697266,64.765625 C214.697266,59.4570312 217.650391,56.3984375 222.712891,56.3984375 C224.189453,56.3984375 225.595703,56.609375 226.439453,56.9609375 L226.439453,47.9257812 C225.666016,47.7148438 224.611328,47.5390625 223.486328,47.5390625 C219.021484,47.5390625 215.822266,50.1757812 214.732422,54.7460938 L214.521484,54.7460938 L214.521484,48.3125 L204.431641,48.3125 L204.431641,86 L214.697266,86 Z M250.029297,86.8789062 C262.826172,86.8789062 270.490234,80.6914062 270.490234,70.953125 L270.490234,70.9179688 C270.490234,62.9375 265.708984,58.6132812 255.091797,56.5039062 L249.712891,55.4140625 C243.876953,54.2539062 241.275391,52.390625 241.275391,49.1914062 L241.275391,49.15625 C241.275391,45.5351562 244.544922,43.0390625 249.994141,43.0039062 C255.232422,43.0039062 258.888672,45.4296875 259.416016,49.4023438 L259.451172,49.8242188 L269.470703,49.8242188 L269.435547,49.15625 C268.943359,40.2617188 261.736328,34.390625 249.994141,34.390625 C238.744141,34.390625 230.658203,40.5078125 230.658203,49.7890625 L230.658203,49.8242188 C230.658203,57.453125 235.720703,62.234375 245.740234,64.2382812 L251.083984,65.2929688 C257.376953,66.59375 259.873047,68.3164062 259.873047,71.7617188 L259.873047,71.796875 C259.873047,75.6640625 256.181641,78.2304688 250.310547,78.2304688 C244.509766,78.2304688 240.326172,75.7695312 239.658203,71.8320312 L239.587891,71.4453125 L229.568359,71.4453125 L229.603516,72.0078125 C230.201172,81.359375 237.970703,86.8789062 250.029297,86.8789062 Z M287.294922,86.5976562 C292.251953,86.5976562 296.259766,84.2421875 298.404297,80.375 L298.615234,80.375 L298.615234,86 L308.880859,86 L308.880859,60.1601562 C308.880859,52.5664062 302.587891,47.5390625 292.849609,47.5390625 C282.900391,47.5390625 276.923828,52.53125 276.361328,59.4921875 L276.326172,59.9140625 L285.712891,59.9140625 L285.783203,59.5976562 C286.275391,57.171875 288.595703,55.3789062 292.427734,55.3789062 C296.435547,55.3789062 298.615234,57.453125 298.615234,60.7929688 L298.615234,63.1132812 L289.298828,63.6757812 C279.947266,64.2734375 274.638672,68.28125 274.638672,75.1367188 L274.638672,75.2070312 C274.638672,81.8515625 279.736328,86.5976562 287.294922,86.5976562 Z M290.634766,79.109375 C287.083984,79.109375 284.798828,77.4570312 284.798828,74.6796875 L284.798828,74.609375 C284.798828,71.9375 286.873047,70.25 290.845703,70.0039062 L298.615234,69.5117188 L298.615234,72.21875 C298.615234,76.15625 295.240234,79.109375 290.634766,79.109375 Z M328.498047,86 L328.498047,56.046875 L335.740234,56.046875 L335.740234,48.3125 L328.251953,48.3125 L328.251953,45.6757812 C328.251953,42.96875 329.763672,41.5273438 333.173828,41.5273438 C334.123047,41.5273438 335.107422,41.5625 335.810547,41.703125 L335.810547,34.9179688 C334.615234,34.671875 332.541016,34.4960938 330.642578,34.4960938 C321.748047,34.4960938 318.232422,37.90625 318.232422,45.2890625 L318.232422,48.3125 L313.099609,48.3125 L313.099609,56.046875 L318.232422,56.046875 L318.232422,86 L328.498047,86 Z M350.400391,86.5976562 C355.357422,86.5976562 359.365234,84.2421875 361.509766,80.375 L361.720703,80.375 L361.720703,86 L371.986328,86 L371.986328,60.1601562 C371.986328,52.5664062 365.693359,47.5390625 355.955078,47.5390625 C346.005859,47.5390625 340.029297,52.53125 339.466797,59.4921875 L339.431641,59.9140625 L348.818359,59.9140625 L348.888672,59.5976562 C349.380859,57.171875 351.701172,55.3789062 355.533203,55.3789062 C359.541016,55.3789062 361.720703,57.453125 361.720703,60.7929688 L361.720703,63.1132812 L352.404297,63.6757812 C343.052734,64.2734375 337.744141,68.28125 337.744141,75.1367188 L337.744141,75.2070312 C337.744141,81.8515625 342.841797,86.5976562 350.400391,86.5976562 Z M353.740234,79.109375 C350.189453,79.109375 347.904297,77.4570312 347.904297,74.6796875 L347.904297,74.609375 C347.904297,71.9375 349.978516,70.25 353.951172,70.0039062 L361.720703,69.5117188 L361.720703,72.21875 C361.720703,76.15625 358.345703,79.109375 353.740234,79.109375 Z M388.861328,86 L388.861328,64.765625 C388.861328,59.4570312 391.814453,56.3984375 396.876953,56.3984375 C398.353516,56.3984375 399.759766,56.609375 400.603516,56.9609375 L400.603516,47.9257812 C399.830078,47.7148438 398.775391,47.5390625 397.650391,47.5390625 C393.185547,47.5390625 389.986328,50.1757812 388.896484,54.7460938 L388.685547,54.7460938 L388.685547,48.3125 L378.595703,48.3125 L378.595703,86 L388.861328,86 Z M410.130859,43.4609375 C413.224609,43.4609375 415.615234,41.0351562 415.615234,38.1171875 C415.615234,35.1992188 413.224609,32.7734375 410.130859,32.7734375 C407.037109,32.7734375 404.646484,35.1992188 404.646484,38.1171875 C404.646484,41.0351562 407.037109,43.4609375 410.130859,43.4609375 Z M415.263672,86 L415.263672,48.3125 L404.998047,48.3125 L404.998047,86 L415.263672,86 Z M449.154297,86 L466.134766,35.2695312 L454.357422,35.2695312 L442.791016,75.1367188 L442.580078,75.1367188 L430.978516,35.2695312 L419.236328,35.2695312 L436.216797,86 L449.154297,86 Z M475.240234,43.4609375 C478.333984,43.4609375 480.724609,41.0351562 480.724609,38.1171875 C480.724609,35.1992188 478.333984,32.7734375 475.240234,32.7734375 C472.146484,32.7734375 469.755859,35.1992188 469.755859,38.1171875 C469.755859,41.0351562 472.146484,43.4609375 475.240234,43.4609375 Z M480.373047,86 L480.373047,48.3125 L470.107422,48.3125 L470.107422,86 L480.373047,86 Z M504.384766,86.7734375 C515.142578,86.7734375 520.345703,80.4101562 521.505859,74.8554688 L521.611328,74.46875 L512.189453,74.46875 L512.119141,74.6796875 C511.380859,76.7890625 508.814453,79.109375 504.595703,79.109375 C499.357422,79.109375 496.087891,75.59375 495.982422,69.5820312 L521.927734,69.5820312 L521.927734,66.4179688 C521.927734,55.0273438 515.001953,47.5390625 503.962891,47.5390625 C492.923828,47.5390625 485.857422,55.203125 485.857422,67.1914062 L485.857422,67.2265625 C485.857422,79.2851562 492.853516,86.7734375 504.384766,86.7734375 Z M512.083984,63.1132812 L496.087891,63.1132812 C496.755859,58.015625 499.919922,55.203125 504.138672,55.203125 C508.392578,55.203125 511.451172,57.9101562 512.083984,63.1132812 Z M545.166016,86 L551.951172,59.3515625 L552.162109,59.3515625 L558.982422,86 L569.916016,86 L579.900391,48.3125 L569.775391,48.3125 L564.044922,76.2617188 L563.833984,76.2617188 L557.119141,48.3125 L547.275391,48.3125 L540.595703,76.2617188 L540.384766,76.2617188 L534.689453,48.3125 L524.353516,48.3125 L534.373047,86 L545.166016,86 Z" id="BetterSafariView" fill="#2D2D2D" fill-rule="nonzero"></path>
    </g>
</svg>