<?xml version="1.0" encoding="UTF-8"?>
<svg width="120px" height="120px" viewBox="0 0 120 120" version="1.1" xmlns="http://www.w3.org/2000/svg" xmlns:xlink="http://www.w3.org/1999/xlink">
    <title>BetterSafariView-Icon</title>
    <defs>
        <linearGradient x1="50%" y1="0%" x2="50%" y2="100%" id="linearGradient-1">
            <stop stop-color="#1AC9FC" offset="0%"></stop>
            <stop stop-color="#1D70F2" offset="100%"></stop>
        </linearGradient>
    </defs>
    <g id="BetterSafariView-Icon" stroke="none" stroke-width="1" fill="none" fill-rule="evenodd">
        <path d="M34.0996736,-5.00500419e-15 L85.9003264,1.37766763e-15 C97.7575258,-8.00464566e-16 102.057233,1.23458065 106.392048,3.55286501 C110.726863,5.87114938 114.128851,9.27313746 116.447135,13.6079523 C118.765419,17.9427672 120,22.2424742 120,34.0996736 L120,85.9003264 C120,97.7575258 118.765419,102.057233 116.447135,106.392048 C114.128851,110.726863 110.726863,114.128851 106.392048,116.447135 C102.057233,118.765419 97.7575258,120 85.9003264,120 L34.0996736,120 C22.2424742,120 17.9427672,118.765419 13.6079523,116.447135 C9.27313746,114.128851 5.87114938,110.726863 3.55286501,106.392048 C1.23458065,102.057233 2.64123004e-15,97.7575258 -4.54578164e-15,85.9003264 L9.18445086e-16,34.0996736 C-5.33643044e-16,22.2424742 1.23458065,17.9427672 3.55286501,13.6079523 C5.87114938,9.27313746 9.27313746,5.87114938 13.6079523,3.55286501 C17.9427672,1.23458065 22.2424742,2.90805157e-15 34.0996736,-5.00500419e-15 Z" id="Outer-Capsule" fill="url(#linearGradient-1)"></path>
        <path d="M102.484665,10.4843341 C105.515776,12.1053901 107.89461,14.4842238 109.515666,17.515335 C111.136722,20.5464461 112,23.5530081 112,31.8441324 L112,88.1558676 C112,96.4469919 111.136722,99.4535539 109.515666,102.484665 C107.89461,105.515776 105.515776,107.89461 102.484665,109.515666 C99.4535539,111.136722 96.4469919,112 88.1558676,112 L31.8441324,112 C23.5530081,112 20.5464461,111.136722 17.515335,109.515666 C14.4842238,107.89461 12.1053901,105.515776 10.4843341,102.484665 C8.89445234,99.5118445 8.03348325,96.562638 8.00095703,88.6283764 L8,31.8441324 C8,23.5530081 8.86327818,20.5464461 10.4843341,17.515335 C12.1053901,14.4842238 14.4842238,12.1053901 17.515335,10.4843341 C20.4881555,8.89445234 23.437362,8.03348325 31.3716236,8.00095703 L88.1558676,8 C96.4469919,8 99.4535539,8.86327818 102.484665,10.4843341 Z M59.9686275,28 C42.4941176,28 28,42.5254902 28,60 C28,77.5058824 42.5254902,92 60,92 C77.5058824,92 92,77.5058824 92,60 C92,42.5254902 77.4745098,28 59.9686275,28 Z M73.2344751,44.1181666 C75.3485572,43.1977179 76.7923393,44.8025536 75.8117647,46.8862745 L75.8117647,46.8862745 L67.0588235,64.8627451 L66.9293391,65.1006536 C66.4396514,65.9538126 65.7830065,66.5960784 64.8627451,67.027451 L64.8627451,67.027451 L46.854902,75.8431373 L46.7111826,75.9089302 C44.7098612,76.7709435 43.1762882,75.1675331 44.1568627,73.145098 L44.1568627,73.145098 L52.9411765,55.1372549 L53.0732639,54.8982409 C53.6090962,53.9703446 54.2395173,53.3755656 55.1372549,52.9411765 L55.1372549,52.9411765 L73.0823529,44.1882353 Z M60,56.2039216 C57.8666667,56.2039216 56.172549,57.8980392 56.172549,60.0313725 C56.172549,62.1647059 57.8666667,63.8901961 60,63.8901961 C62.1333333,63.8901961 63.8588235,62.1647059 63.8588235,60.0313725 C63.8588235,57.8980392 62.1333333,56.2039216 60,56.2039216 Z" id="White-Mask" fill="#FFFFFF"></path>
    </g>
</svg>