<?xml version="1.0" encoding="UTF-8"?>
<svg width="800px" height="430px" viewBox="0 0 800 430" version="1.1" xmlns="http://www.w3.org/2000/svg" xmlns:xlink="http://www.w3.org/1999/xlink">
    <title>BetterSafariView-Comparison</title>
    <g id="BetterSafariView-Comparison" stroke="none" stroke-width="1" fill="none" fill-rule="evenodd">
        <rect fill="#FFFFFF" x="0" y="0" width="800" height="430"></rect>
        <path d="M544.533734,407 L544.533734,398.018555 L544.658246,398.018555 L549.505902,407 L551.099652,407 L551.099652,395.021973 L549.564008,395.021973 L549.564008,403.978516 L549.439496,403.978516 L544.608441,395.021973 L542.99809,395.021973 L542.99809,407 L544.533734,407 Z M556.145266,407.149414 C557.423586,407.149414 558.394777,406.618164 558.826418,405.688477 L558.984133,405.688477 L558.984133,407.008301 L560.569582,407.008301 L560.569582,400.824219 C560.569582,398.92334 559.324465,397.827637 557.141359,397.827637 C555.198977,397.827637 553.779543,398.840332 553.613527,400.334473 L555.24048,400.334473 C555.456301,399.620605 556.145266,399.205566 557.108156,399.205566 C558.270266,399.205566 558.917727,399.786621 558.917727,400.824219 L558.917727,401.621094 L556.543703,401.745605 C554.435305,401.870117 553.273195,402.816406 553.273195,404.426758 C553.273195,406.062012 554.418703,407.149414 556.145266,407.149414 Z M556.659914,405.763184 C555.597414,405.763184 554.933352,405.223633 554.933352,404.352051 C554.933352,403.472168 555.564211,402.974121 556.767824,402.907715 L558.917727,402.799805 L558.917727,403.754395 C558.917727,404.908203 557.954836,405.763184 556.659914,405.763184 Z M568.180137,407 L571.442344,397.952148 L569.674277,397.952148 L567.325156,405.29834 L567.208945,405.29834 L564.843223,397.952148 L563.058555,397.952148 L566.329062,407 L568.180137,407 Z M577.500652,395.835449 C578.247723,395.835449 578.787273,395.320801 578.787273,394.606934 C578.787273,393.884766 578.247723,393.370117 577.500652,393.370117 C576.761883,393.370117 576.214031,393.884766 576.214031,394.606934 C576.214031,395.320801 576.761883,395.835449 577.500652,395.835449 Z M581.319012,407 L581.319012,405.655273 L578.397137,405.655273 L578.397137,397.952148 L573.790203,397.952148 L573.790203,399.296875 L576.770184,399.296875 L576.770184,405.655273 L573.723797,405.655273 L573.723797,407 L581.319012,407 Z M587.194703,410.39502 C589.701539,410.39502 591.20398,409.116699 591.20398,406.991699 L591.20398,397.952148 L589.560426,397.952148 L589.560426,399.388184 L589.402711,399.388184 C589.037477,398.400391 588.041383,397.802734 586.729859,397.802734 C584.596559,397.802734 583.243531,399.288574 583.243531,401.654297 L583.243531,403.198242 C583.243531,405.555664 584.588258,407.049805 586.671754,407.049805 C587.999879,407.049805 589.020875,406.443848 589.377809,405.472656 L589.535523,405.472656 L589.535523,406.983398 C589.535523,408.344727 588.713746,409.091797 587.219605,409.091797 C586.074098,409.091797 585.219117,408.635254 585.044801,407.929688 L583.401246,407.929688 C583.575562,409.457031 585.019898,410.39502 587.194703,410.39502 Z M587.236207,405.580566 C585.833375,405.580566 584.936891,404.584473 584.936891,403.040527 L584.936891,401.787109 C584.936891,400.243164 585.833375,399.24707 587.236207,399.24707 C588.630738,399.24707 589.535523,400.234863 589.535523,401.787109 L589.535523,403.040527 C589.535523,404.584473 588.630738,405.580566 587.236207,405.580566 Z M596.548422,407.149414 C597.826742,407.149414 598.797934,406.618164 599.229574,405.688477 L599.387289,405.688477 L599.387289,407.008301 L600.972738,407.008301 L600.972738,400.824219 C600.972738,398.92334 599.727621,397.827637 597.544516,397.827637 C595.602133,397.827637 594.182699,398.840332 594.016684,400.334473 L595.643637,400.334473 C595.859457,399.620605 596.548422,399.205566 597.511312,399.205566 C598.673422,399.205566 599.320883,399.786621 599.320883,400.824219 L599.320883,401.621094 L596.946859,401.745605 C594.838461,401.870117 593.676352,402.816406 593.676352,404.426758 C593.676352,406.062012 594.821859,407.149414 596.548422,407.149414 Z M597.06307,405.763184 C596.00057,405.763184 595.336508,405.223633 595.336508,404.352051 C595.336508,403.472168 595.967367,402.974121 597.17098,402.907715 L599.320883,402.799805 L599.320883,403.754395 C599.320883,404.908203 598.357992,405.763184 597.06307,405.763184 Z M609.338664,407.033203 C609.687297,407.033203 610.99882,407 611.181437,406.966797 L611.181437,405.605469 C610.982219,405.630371 609.878215,405.646973 609.454875,405.646973 C608.301066,405.646973 607.678508,405.157227 607.678508,404.260742 L607.678508,399.371582 L611.231242,399.371582 L611.231242,398.001953 L607.653605,398.001953 L607.653605,395.478516 L606.010051,395.478516 L606.010051,398.001953 L603.619426,398.001953 L603.619426,399.371582 L606.010051,399.371582 L606.010051,404.260742 C606.010051,406.203125 607.022746,407.033203 609.338664,407.033203 Z M617.903809,395.835449 C618.650879,395.835449 619.19043,395.320801 619.19043,394.606934 C619.19043,393.884766 618.650879,393.370117 617.903809,393.370117 C617.165039,393.370117 616.617187,393.884766 616.617187,394.606934 C616.617187,395.320801 617.165039,395.835449 617.903809,395.835449 Z M621.722168,407 L621.722168,405.655273 L618.800293,405.655273 L618.800293,397.952148 L614.193359,397.952148 L614.193359,399.296875 L617.17334,399.296875 L617.17334,405.655273 L614.126953,405.655273 L614.126953,407 L621.722168,407 Z M627.855184,407.174316 C630.295613,407.174316 631.847859,405.61377 631.847859,403.165039 L631.847859,401.79541 C631.847859,399.338379 630.295613,397.786133 627.855184,397.786133 C625.414754,397.786133 623.862508,399.338379 623.862508,401.79541 L623.862508,403.165039 C623.862508,405.61377 625.414754,407.174316 627.855184,407.174316 Z M627.855184,405.763184 C626.410848,405.763184 625.506062,404.725586 625.506062,403.048828 L625.506062,401.911621 C625.506062,400.234863 626.410848,399.197266 627.855184,399.197266 C629.29952,399.197266 630.204305,400.234863 630.204305,401.911621 L630.204305,403.048828 C630.204305,404.725586 629.29952,405.763184 627.855184,405.763184 Z M635.814371,407 L635.814371,401.695801 C635.814371,400.234863 636.744059,399.263672 638.130289,399.263672 C639.466715,399.263672 640.089273,399.994141 640.089273,401.546387 L640.089273,407 L641.75773,407 L641.75773,401.131348 C641.75773,398.956543 640.69523,397.777832 638.727945,397.777832 C637.374918,397.777832 636.353922,398.408691 635.880777,399.529297 L635.764566,399.529297 L635.764566,397.952148 L634.154215,397.952148 L634.154215,407 L635.814371,407 Z M652.173949,407 L652.173949,405.439453 L646.620727,405.439453 L646.620727,395.021973 L644.910766,395.021973 L644.910766,407 L652.173949,407 Z M658.306965,395.835449 C659.054035,395.835449 659.593586,395.320801 659.593586,394.606934 C659.593586,393.884766 659.054035,393.370117 658.306965,393.370117 C657.568195,393.370117 657.020344,393.884766 657.020344,394.606934 C657.020344,395.320801 657.568195,395.835449 658.306965,395.835449 Z M662.125324,407 L662.125324,405.655273 L659.203449,405.655273 L659.203449,397.952148 L654.596516,397.952148 L654.596516,399.296875 L657.576496,399.296875 L657.576496,405.655273 L654.530109,405.655273 L654.530109,407 L662.125324,407 Z M666.116738,407 L666.116738,401.695801 C666.116738,400.234863 667.046426,399.263672 668.432656,399.263672 C669.769082,399.263672 670.391641,399.994141 670.391641,401.546387 L670.391641,407 L672.060098,407 L672.060098,401.131348 C672.060098,398.956543 670.997598,397.777832 669.030312,397.777832 C667.677285,397.777832 666.656289,398.408691 666.183145,399.529297 L666.066934,399.529297 L666.066934,397.952148 L664.456582,397.952148 L664.456582,407 L666.116738,407 Z M676.831785,407 L676.831785,403.787598 L677.968992,402.675293 L680.91577,407 L682.874754,407 L679.172605,401.587891 L682.634031,397.952148 L680.658445,397.952148 L676.956297,401.89502 L676.831785,401.89502 L676.831785,394.424316 L675.171629,394.424316 L675.171629,407 L676.831785,407 Z" id="NavigationLink-Caption" fill="#404040" fill-rule="nonzero"></path>
        <path d="M112.238609,407 C114.811852,407 116.355797,405.738281 116.355797,403.638184 C116.355797,402.052734 115.276695,400.865723 113.666344,400.724609 L113.666344,400.600098 C114.894859,400.392578 115.758141,399.305176 115.758141,397.985352 C115.758141,396.134277 114.421715,395.021973 112.180504,395.021973 L108.146324,395.021973 L108.146324,407 L112.238609,407 Z M111.566246,400.126953 L109.847984,400.126953 L109.847984,396.433105 L111.757164,396.433105 C113.209801,396.433105 114.023277,397.105469 114.023277,398.29248 C114.023277,399.471191 113.151695,400.126953 111.566246,400.126953 Z M111.806969,405.572266 L109.847984,405.572266 L109.847984,401.47998 L111.765465,401.47998 C113.608238,401.47998 114.562828,402.168945 114.562828,403.505371 C114.562828,404.883301 113.633141,405.572266 111.806969,405.572266 Z M122.256391,407.174316 C124.207074,407.174316 125.701215,406.128418 125.941937,404.609375 L124.348187,404.609375 C124.124066,405.348145 123.318891,405.804688 122.24809,405.804688 C120.820355,405.804688 119.898969,404.825195 119.898969,403.297852 L119.898969,402.891113 L125.96684,402.891113 L125.96684,401.911621 C125.96684,399.338379 124.530805,397.777832 122.165082,397.777832 C119.815961,397.777832 118.263715,399.34668 118.263715,401.729004 L118.263715,403.106934 C118.263715,405.680176 119.716352,407.174316 122.256391,407.174316 Z M124.331586,401.720703 L119.898969,401.720703 C119.898969,400.102051 120.745648,399.13916 122.14848,399.13916 C123.518109,399.13916 124.331586,400.110352 124.331586,401.720703 Z M133.834719,407.033203 C134.183352,407.033203 135.494875,407 135.677492,406.966797 L135.677492,405.605469 C135.478273,405.630371 134.37427,405.646973 133.95093,405.646973 C132.797121,405.646973 132.174562,405.157227 132.174562,404.260742 L132.174562,399.371582 L135.727297,399.371582 L135.727297,398.001953 L132.14966,398.001953 L132.14966,395.478516 L130.506105,395.478516 L130.506105,398.001953 L128.11548,398.001953 L128.11548,399.371582 L130.506105,399.371582 L130.506105,404.260742 C130.506105,406.203125 131.518801,407.033203 133.834719,407.033203 Z M143.935508,407.033203 C144.284141,407.033203 145.595664,407 145.778281,406.966797 L145.778281,405.605469 C145.579062,405.630371 144.475059,405.646973 144.051719,405.646973 C142.89791,405.646973 142.275352,405.157227 142.275352,404.260742 L142.275352,399.371582 L145.828086,399.371582 L145.828086,398.001953 L142.250449,398.001953 L142.250449,395.478516 L140.606895,395.478516 L140.606895,398.001953 L138.21627,398.001953 L138.21627,399.371582 L140.606895,399.371582 L140.606895,404.260742 C140.606895,406.203125 141.61959,407.033203 143.935508,407.033203 Z M152.558758,407.174316 C154.509441,407.174316 156.003582,406.128418 156.244305,404.609375 L154.650555,404.609375 C154.426434,405.348145 153.621258,405.804688 152.550457,405.804688 C151.122723,405.804688 150.201336,404.825195 150.201336,403.297852 L150.201336,402.891113 L156.269207,402.891113 L156.269207,401.911621 C156.269207,399.338379 154.833172,397.777832 152.467449,397.777832 C150.118328,397.777832 148.566082,399.34668 148.566082,401.729004 L148.566082,403.106934 C148.566082,405.680176 150.018719,407.174316 152.558758,407.174316 Z M154.633953,401.720703 L150.201336,401.720703 C150.201336,400.102051 151.048016,399.13916 152.450848,399.13916 C153.820477,399.13916 154.633953,400.110352 154.633953,401.720703 Z M164.900758,407 L164.900758,405.72168 L162.153199,405.72168 L162.153199,402.96582 C162.153199,400.749512 163.290406,399.479492 165.332398,399.479492 C165.830445,399.479492 166.419801,399.587402 166.826539,399.736816 L166.826539,397.910645 C166.527711,397.786133 166.037965,397.719727 165.523316,397.719727 C163.788453,397.719727 162.734254,398.558105 162.37732,400.259766 L162.144898,400.259766 L162.144898,397.952148 L158.567262,397.952148 L158.567262,399.230469 L160.534547,399.230469 L160.534547,405.72168 L158.741578,405.72168 L158.741578,407 L164.900758,407 Z M172.644125,407.249023 C175.24227,407.249023 176.877523,405.862793 176.877523,403.654785 C176.877523,401.909842 175.959027,400.898153 173.809437,400.329448 L172.469809,399.994141 C170.983969,399.637207 170.36141,399.072754 170.36141,398.093262 C170.36141,396.956055 171.224691,396.275391 172.660727,396.275391 C173.997152,396.275391 174.868734,396.964355 175.001547,398.134766 L176.661703,398.134766 C176.570395,396.109375 174.976645,394.772949 172.644125,394.772949 C170.203695,394.772949 168.626547,396.125977 168.626547,398.217773 C168.626547,399.960938 169.647543,401.040039 171.855551,401.587891 L172.951254,401.845215 C174.5035,402.227051 175.14266,402.799805 175.14266,403.770996 C175.14266,404.974609 174.171469,405.746582 172.660727,405.746582 C171.133383,405.746582 170.14559,405.007812 170.012777,403.762695 L168.34432,403.762695 C168.460531,405.920898 170.095785,407.249023 172.644125,407.249023 Z M181.649211,407.149414 C182.927531,407.149414 183.898723,406.618164 184.330363,405.688477 L184.488078,405.688477 L184.488078,407.008301 L186.073527,407.008301 L186.073527,400.824219 C186.073527,398.92334 184.82841,397.827637 182.645305,397.827637 C180.702922,397.827637 179.283488,398.840332 179.117473,400.334473 L180.744426,400.334473 C180.960246,399.620605 181.649211,399.205566 182.612102,399.205566 C183.774211,399.205566 184.421672,399.786621 184.421672,400.824219 L184.421672,401.621094 L182.047648,401.745605 C179.93925,401.870117 178.777141,402.816406 178.777141,404.426758 C178.777141,406.062012 179.922648,407.149414 181.649211,407.149414 Z M182.163859,405.763184 C181.101359,405.763184 180.437297,405.223633 180.437297,404.352051 C180.437297,403.472168 181.068156,402.974121 182.27177,402.907715 L184.421672,402.799805 L184.421672,403.754395 C184.421672,404.908203 183.458781,405.763184 182.163859,405.763184 Z M193.02002,407 L193.02002,399.371582 L196.888184,399.371582 L196.888184,398.001953 L192.995117,398.001953 L192.995117,397.097168 C192.995117,396.258789 193.592773,395.818848 194.72998,395.818848 C195.14502,395.818848 196.556152,395.852051 196.888184,395.885254 L196.888184,394.598633 C196.63916,394.557129 195.128418,394.523926 194.696777,394.523926 C192.405762,394.523926 191.359863,395.329102 191.359863,397.155273 L191.359863,398.001953 L188.936035,398.001953 L188.936035,399.371582 L191.359863,399.371582 L191.359863,407 L193.02002,407 Z M201.850789,407.149414 C203.129109,407.149414 204.100301,406.618164 204.531941,405.688477 L204.689656,405.688477 L204.689656,407.008301 L206.275105,407.008301 L206.275105,400.824219 C206.275105,398.92334 205.029988,397.827637 202.846883,397.827637 C200.9045,397.827637 199.485066,398.840332 199.319051,400.334473 L200.946004,400.334473 C201.161824,399.620605 201.850789,399.205566 202.81368,399.205566 C203.975789,399.205566 204.62325,399.786621 204.62325,400.824219 L204.62325,401.621094 L202.249227,401.745605 C200.140828,401.870117 198.978719,402.816406 198.978719,404.426758 C198.978719,406.062012 200.124227,407.149414 201.850789,407.149414 Z M202.365437,405.763184 C201.302937,405.763184 200.638875,405.223633 200.638875,404.352051 C200.638875,403.472168 201.269734,402.974121 202.473348,402.907715 L204.62325,402.799805 L204.62325,403.754395 C204.62325,404.908203 203.660359,405.763184 202.365437,405.763184 Z M215.404703,407 L215.404703,405.72168 L212.657145,405.72168 L212.657145,402.96582 C212.657145,400.749512 213.794352,399.479492 215.836344,399.479492 C216.334391,399.479492 216.923746,399.587402 217.330484,399.736816 L217.330484,397.910645 C217.031656,397.786133 216.54191,397.719727 216.027262,397.719727 C214.292398,397.719727 213.238199,398.558105 212.881266,400.259766 L212.648844,400.259766 L212.648844,397.952148 L209.071207,397.952148 L209.071207,399.230469 L211.038492,399.230469 L211.038492,405.72168 L209.245523,405.72168 L209.245523,407 L215.404703,407 Z M223.206176,395.835449 C223.953246,395.835449 224.492797,395.320801 224.492797,394.606934 C224.492797,393.884766 223.953246,393.370117 223.206176,393.370117 C222.467406,393.370117 221.919555,393.884766 221.919555,394.606934 C221.919555,395.320801 222.467406,395.835449 223.206176,395.835449 Z M227.024535,407 L227.024535,405.655273 L224.10266,405.655273 L224.10266,397.952148 L219.495727,397.952148 L219.495727,399.296875 L222.475707,399.296875 L222.475707,405.655273 L219.42932,405.655273 L219.42932,407 L227.024535,407 Z M234.120441,407 L237.897297,395.021973 L236.162434,395.021973 L233.223957,405.08252 L233.165852,405.08252 L230.243977,395.021973 L228.417805,395.021973 L232.19466,407 L234.120441,407 Z M243.407754,395.835449 C244.154824,395.835449 244.694375,395.320801 244.694375,394.606934 C244.694375,393.884766 244.154824,393.370117 243.407754,393.370117 C242.668984,393.370117 242.121133,393.884766 242.121133,394.606934 C242.121133,395.320801 242.668984,395.835449 243.407754,395.835449 Z M247.226113,407 L247.226113,405.655273 L244.304238,405.655273 L244.304238,397.952148 L239.697305,397.952148 L239.697305,399.296875 L242.677285,399.296875 L242.677285,405.655273 L239.630898,405.655273 L239.630898,407 L247.226113,407 Z M253.566648,407.174316 C255.517332,407.174316 257.011473,406.128418 257.252195,404.609375 L255.658445,404.609375 C255.434324,405.348145 254.629148,405.804688 253.558348,405.804688 C252.130613,405.804688 251.209227,404.825195 251.209227,403.297852 L251.209227,402.891113 L257.277098,402.891113 L257.277098,401.911621 C257.277098,399.338379 255.841062,397.777832 253.47534,397.777832 C251.126219,397.777832 249.573973,399.34668 249.573973,401.729004 L249.573973,403.106934 C249.573973,405.680176 251.026609,407.174316 253.566648,407.174316 Z M255.641844,401.720703 L251.209227,401.720703 C251.209227,400.102051 252.055906,399.13916 253.458738,399.13916 C254.828367,399.13916 255.641844,400.110352 255.641844,401.720703 Z M261.974078,407 L263.418414,400.218262 L263.509723,400.218262 L264.945758,407 L266.481402,407 L268.390582,397.952148 L266.78023,397.952148 L265.70943,404.966309 L265.518512,404.966309 L264.198687,397.96875 L262.721148,397.96875 L261.401324,404.966309 L261.210406,404.966309 L260.139605,397.952148 L258.529254,397.952148 L260.438434,407 L261.974078,407 Z" id="BetterSafariView-Caption" fill="#404040" fill-rule="nonzero"></path>
        <g id="NavigationLink" transform="translate(425.000000, 0.000000)">
            <rect id="Background" fill="#F2F2F7" x="0" y="0" width="375" height="375"></rect>
            <g id="Second-Navigation-Bar" transform="translate(0.000000, 88.000000)">
                <g id="Background">
                    <polygon fill-opacity="0.94" fill="#F9F9F9" points="0 0 375 0 375 44 0 44"></polygon>
                    <line x1="0" y1="44.1666667" x2="375" y2="44.1666667" id="Seperator" stroke-opacity="0.3" stroke="#000000" stroke-width="0.333333333"></line>
                </g>
                <g id="Group" transform="translate(0.000000, 3.000000)" fill-rule="nonzero">
                    <g>
                        <path d="M348.496589,28 C352.624193,28 355.931484,24.6861979 355.931484,20.5520833 C355.931484,20.1223958 355.625495,19.8164062 355.195807,19.8164062 C354.779141,19.8164062 354.499193,20.1223958 354.499193,20.5520833 C354.499193,23.8984375 351.829922,26.5677083 348.496589,26.5677083 C345.156745,26.5677083 342.487474,23.8984375 342.487474,20.5520833 C342.487474,17.1992187 345.137214,14.5429687 348.477057,14.5429687 C349.115078,14.5429687 349.701016,14.5885417 350.215339,14.6992187 L347.669766,17.2317708 C347.533047,17.3684896 347.467943,17.53125 347.467943,17.7200521 C347.467943,18.1171875 347.767422,18.4296875 348.164557,18.4296875 C348.372891,18.4296875 348.535651,18.3580729 348.665859,18.2278646 L352.174974,14.6796875 C352.344245,14.5104167 352.415859,14.3346354 352.415859,14.1328125 C352.415859,13.9375 352.331224,13.7421875 352.174974,13.5859375 L348.665859,10.0117187 C348.542161,9.875 348.372891,9.80338542 348.158047,9.80338542 C347.767422,9.80338542 347.467943,10.1223958 347.467943,10.5195312 C347.467943,10.7148437 347.533047,10.8776042 347.663255,11.0143229 L349.935391,13.2669271 C349.46013,13.1822917 348.965339,13.1302083 348.477057,13.1302083 C344.349453,13.1302083 341.055182,16.4244792 341.055182,20.5520833 C341.055182,24.6861979 344.362474,28 348.496589,28 Z" id="arrow.clockwise" fill="#007AFF"></path>
                        <path d="M317.8317,25.1901042 C318.314122,25.1901042 318.625157,24.9044596 318.625157,24.4601237 C318.625157,24.3077799 318.593419,24.1681315 318.529942,23.9777018 L314.708653,13.8151042 C314.505528,13.2565104 314.137364,12.9835612 313.540684,12.9835612 C312.969395,12.9835612 312.594883,13.2565104 312.398106,13.8087565 L308.564122,24.0094401 C308.494298,24.1871745 308.475255,24.3331706 308.475255,24.4791667 C308.475255,24.9171549 308.767247,25.1901042 309.243321,25.1901042 C309.674962,25.1901042 309.89713,24.9996745 310.055821,24.5299479 L311.109532,21.6544596 L315.965489,21.6544596 L317.012852,24.5299479 C317.177891,24.9996745 317.400059,25.1901042 317.8317,25.1901042 Z M315.565587,20.3722331 L311.503087,20.3722331 L313.508946,14.7736003 L313.559727,14.7736003 L315.565587,20.3722331 Z M306.64713,25.1901042 C307.072423,25.1901042 307.370762,24.9108073 307.370762,24.5045573 C307.370762,24.3522135 307.339024,24.1998698 307.262852,23.9967448 L304.768223,17.3888346 C304.577794,16.8619792 304.23502,16.569987 303.676426,16.569987 C303.143223,16.569987 302.806798,16.8683268 302.616368,17.3888346 L300.121739,23.9967448 C300.045567,24.1935221 300.020176,24.3649089 300.020176,24.5045573 C300.020176,24.9171549 300.305821,25.1901042 300.750157,25.1901042 C301.111973,25.1901042 301.340489,25.0060221 301.486485,24.5426432 L302.146641,22.6891276 L305.231602,22.6891276 L305.891758,24.5489909 C306.037755,25.0123698 306.26627,25.1901042 306.64713,25.1901042 Z M304.876133,21.5402018 L302.50211,21.5402018 L303.63834,18.175944 L303.727208,18.175944 L304.876133,21.5402018 Z" id="textformat.size" fill="#007AFF"></path>
                        <path d="M139.507672,25.1826172 C141.649273,25.1826172 143.168316,24.1533203 143.541852,22.5180664 L141.591168,22.5180664 C141.29234,23.1987305 140.586773,23.5805664 139.565777,23.5805664 C138.21275,23.5805664 137.341168,22.6176758 137.291363,21.0820312 L137.291363,20.9741211 L143.63316,20.9741211 L143.63316,20.3183594 C143.63316,17.4711914 142.080914,15.7529297 139.49107,15.7529297 C136.859723,15.7529297 135.224469,17.5874023 135.224469,20.5009766 C135.224469,23.40625 136.83482,25.1826172 139.507672,25.1826172 Z M141.574566,19.6044922 L137.299664,19.6044922 C137.390973,18.2431641 138.254254,17.3549805 139.48277,17.3549805 C140.719586,17.3549805 141.533062,18.2265625 141.574566,19.6044922 Z M146.470766,25.0166016 L148.32184,21.8623047 L148.462953,21.8623047 L150.322328,25.0166016 L152.646547,25.0166016 L149.683168,20.4262695 L152.613344,15.9438477 L150.34723,15.9438477 L148.554262,19.0898438 L148.413148,19.0898438 L146.611879,15.9438477 L144.221254,15.9438477 L147.184633,20.5175781 L144.246156,25.0166016 L146.470766,25.0166016 Z M156.463645,25.1494141 C157.650656,25.1494141 158.64675,24.6347656 159.153098,23.7548828 L159.294211,23.7548828 L159.294211,25 L161.278098,25 L161.278098,18.7993164 C161.278098,16.8818359 159.966574,15.7529297 157.634055,15.7529297 C155.475852,15.7529297 153.97341,16.765625 153.807395,18.3510742 L155.749777,18.3510742 C155.940695,17.7285156 156.588156,17.3881836 157.534445,17.3881836 C158.64675,17.3881836 159.244406,17.8945312 159.244406,18.7993164 L159.244406,19.5795898 L156.903586,19.7207031 C154.695578,19.8452148 153.458762,20.7998047 153.458762,22.4267578 C153.458762,24.0869141 154.71218,25.1494141 156.463645,25.1494141 Z M157.069602,23.5639648 C156.156516,23.5639648 155.500754,23.1074219 155.500754,22.3271484 C155.500754,21.5717773 156.040305,21.1484375 157.194113,21.0737305 L159.244406,20.9326172 L159.244406,21.6713867 C159.244406,22.7504883 158.314719,23.5639648 157.069602,23.5639648 Z M165.402324,25 L165.402324,19.4799805 C165.402324,18.3510742 166.157695,17.4960938 167.178691,17.4960938 C168.191387,17.4960938 168.822246,18.1103516 168.822246,19.1147461 L168.822246,25 L170.822734,25 L170.822734,19.3305664 C170.822734,18.2929688 171.528301,17.4960938 172.599102,17.4960938 C173.703105,17.4960938 174.259258,18.0854492 174.259258,19.2641602 L174.259258,25 L176.309551,25 L176.309551,18.7578125 C176.309551,16.8735352 175.213848,15.7529297 173.395977,15.7529297 C172.134258,15.7529297 171.088359,16.4003906 170.640117,17.3881836 L170.499004,17.3881836 C170.117168,16.3837891 169.245586,15.7529297 167.992168,15.7529297 C166.788555,15.7529297 165.858867,16.3671875 165.46873,17.3881836 L165.327617,17.3881836 L165.327617,15.9272461 L163.34373,15.9272461 L163.34373,25 L165.402324,25 Z M180.400574,28.0131836 L180.400574,23.6220703 L180.541688,23.6220703 C181.006531,24.5849609 182.010926,25.1494141 183.314148,25.1494141 C185.605164,25.1494141 187.032898,23.3481445 187.032898,20.4677734 C187.032898,17.5625 185.588563,15.777832 183.289246,15.777832 C182.044129,15.777832 180.98993,16.4003906 180.46698,17.4296875 L180.325867,17.4296875 L180.325867,15.9272461 L178.34198,15.9272461 L178.34198,28.0131836 L180.400574,28.0131836 Z M182.641785,23.4394531 C181.238953,23.4394531 180.367371,22.3022461 180.35907,20.4677734 C180.367371,18.6333008 181.247254,17.4960938 182.650086,17.4960938 C184.061219,17.4960938 184.916199,18.6083984 184.916199,20.4677734 C184.916199,22.3271484 184.06952,23.4394531 182.641785,23.4394531 Z M190.833395,25 L190.833395,12.4160156 L188.774801,12.4160156 L188.774801,25 L190.833395,25 Z M196.8585,25.1826172 C199.000102,25.1826172 200.519145,24.1533203 200.89268,22.5180664 L198.941996,22.5180664 C198.643168,23.1987305 197.937602,23.5805664 196.916605,23.5805664 C195.563578,23.5805664 194.691996,22.6176758 194.642191,21.0820312 L194.642191,20.9741211 L200.983988,20.9741211 L200.983988,20.3183594 C200.983988,17.4711914 199.431742,15.7529297 196.841898,15.7529297 C194.210551,15.7529297 192.575297,17.5874023 192.575297,20.5009766 C192.575297,23.40625 194.185648,25.1826172 196.8585,25.1826172 Z M198.925395,19.6044922 L194.650492,19.6044922 C194.741801,18.2431641 195.605082,17.3549805 196.833598,17.3549805 C198.070414,17.3549805 198.883891,18.2265625 198.925395,19.6044922 Z M204.178527,25.1660156 C204.967102,25.1660156 205.506652,24.6098633 205.506652,23.8710938 C205.506652,23.140625 204.967102,22.5844727 204.178527,22.5844727 C203.398254,22.5844727 202.850402,23.140625 202.850402,23.8710938 C202.850402,24.6098633 203.398254,25.1660156 204.178527,25.1660156 Z M211.390645,25.1826172 C213.689961,25.1826172 215.117695,23.9042969 215.341816,22.0283203 L213.382832,22.0283203 C213.167012,22.9829102 212.453145,23.4892578 211.382344,23.4892578 C209.979512,23.4892578 209.132832,22.3686523 209.132832,20.4428711 C209.132832,18.550293 209.971211,17.4379883 211.382344,17.4379883 C212.51125,17.4379883 213.191914,18.0771484 213.382832,18.9570312 L215.341816,18.9570312 C215.125996,17.0810547 213.714863,15.7529297 211.382344,15.7529297 C208.651387,15.7529297 207.049336,17.5043945 207.049336,20.4428711 C207.049336,23.4145508 208.659688,25.1826172 211.390645,25.1826172 Z M220.81907,25.1826172 C223.533426,25.1826172 225.185281,23.40625 225.185281,20.4594727 C225.185281,17.5292969 223.525125,15.7529297 220.81907,15.7529297 C218.121316,15.7529297 216.452859,17.5375977 216.452859,20.4594727 C216.452859,23.40625 218.096414,25.1826172 220.81907,25.1826172 Z M220.81907,23.4975586 C219.383035,23.4975586 218.561258,22.3852539 218.561258,20.4677734 C218.561258,18.550293 219.383035,17.4379883 220.81907,17.4379883 C222.246805,17.4379883 223.068582,18.550293 223.068582,20.4677734 C223.068582,22.3852539 222.255105,23.4975586 220.81907,23.4975586 Z M228.91107,25 L228.91107,19.4799805 C228.91107,18.3510742 229.666441,17.4960938 230.687437,17.4960938 C231.700133,17.4960938 232.330992,18.1103516 232.330992,19.1147461 L232.330992,25 L234.33148,25 L234.33148,19.3305664 C234.33148,18.2929688 235.037047,17.4960938 236.107848,17.4960938 C237.211852,17.4960938 237.768004,18.0854492 237.768004,19.2641602 L237.768004,25 L239.818297,25 L239.818297,18.7578125 C239.818297,16.8735352 238.722594,15.7529297 236.904723,15.7529297 C235.643004,15.7529297 234.597105,16.4003906 234.148863,17.3881836 L234.00775,17.3881836 C233.625914,16.3837891 232.754332,15.7529297 231.500914,15.7529297 C230.297301,15.7529297 229.367613,16.3671875 228.977477,17.3881836 L228.836363,17.3881836 L228.836363,15.9272461 L226.852477,15.9272461 L226.852477,25 L228.91107,25 Z" id="example.com" fill="#000000"></path>
                        <path d="M19.9677734,25.3333333 C23.7382812,25.3333333 25.953125,22.9866536 25.953125,18.9876302 C25.953125,14.9973958 23.7294922,12.6507161 19.9677734,12.6507161 L15.6171875,12.6507161 L15.6171875,25.3333333 L19.9677734,25.3333333 Z M19.8623047,23.9095052 L17.1992187,23.9095052 L17.1992187,14.0745443 L19.8623047,14.0745443 C22.6748047,14.0745443 24.3359375,15.9026693 24.3359375,19.0052083 C24.3359375,22.0989583 22.6923828,23.9095052 19.8623047,23.9095052 Z M31.9455078,25.5003255 C34.64375,25.5003255 36.3136719,23.6370443 36.3136719,20.5960286 C36.3136719,17.546224 34.64375,15.6917318 31.9455078,15.6917318 C29.2472656,15.6917318 27.5773437,17.546224 27.5773437,20.5960286 C27.5773437,23.6370443 29.2472656,25.5003255 31.9455078,25.5003255 Z M31.9455078,24.1380208 C30.1525391,24.1380208 29.1417969,22.8372396 29.1417969,20.5960286 C29.1417969,18.3460286 30.1525391,17.0540365 31.9455078,17.0540365 C33.7384766,17.0540365 34.7492187,18.3460286 34.7492187,20.5960286 C34.7492187,22.8372396 33.7384766,24.1380208 31.9455078,24.1380208 Z M39.7484375,25.3333333 L39.7484375,19.7259115 C39.7484375,18.0647786 40.7240234,17.0540365 42.2357422,17.0540365 C43.7474609,17.0540365 44.4681641,17.8626302 44.4681641,19.5677083 L44.4681641,25.3333333 L45.9798828,25.3333333 L45.9798828,19.1985677 C45.9798828,16.9485677 44.7933594,15.6917318 42.6664062,15.6917318 C41.2162109,15.6917318 40.2933594,16.3069661 39.81875,17.3528646 L39.678125,17.3528646 L39.678125,15.858724 L38.2367187,15.858724 L38.2367187,25.3333333 L39.7484375,25.3333333 Z M52.0865234,25.5003255 C54.1607422,25.5003255 55.6373047,24.4983724 56.0767578,22.8811849 L54.5650391,22.8811849 C54.1695312,23.7161458 53.3433594,24.164388 52.1216797,24.164388 C50.5132812,24.164388 49.4673828,22.9778646 49.3882812,21.1057943 L49.3882812,21.0354818 L56.1998047,21.0354818 L56.1998047,20.4554036 C56.1998047,17.5110677 54.6441406,15.6917318 52.0865234,15.6917318 C49.4849609,15.6917318 47.8150391,17.6253255 47.8150391,20.6048177 C47.8150391,23.601888 49.4585937,25.5003255 52.0865234,25.5003255 Z M54.6089844,19.8138021 L49.3882812,19.8138021 C49.5025391,18.1350911 50.5572266,17.0276693 52.0689453,17.0276693 C53.571875,17.0276693 54.5738281,18.1350911 54.6089844,19.8138021 Z" id="Done" fill="#007AFF"></path>
                    </g>
                </g>
            </g>
            <g id="First-Navigation-Bar">
                <g id="Background">
                    <polygon fill-opacity="0.94" fill="#F9F9F9" points="0 0 375 0 375 88 0 88"></polygon>
                    <line x1="0" y1="88.1666667" x2="375" y2="88.1666667" id="Seperator" stroke-opacity="0.3" stroke="#000000" stroke-width="0.333333333"></line>
                </g>
                <path d="M19.5585938,76.9335938 C20.34375,76.9335938 20.953125,76.3242188 20.953125,75.5507812 C20.953125,75.1640625 20.8007812,74.8125 20.53125,74.5429688 L12.328125,66.5273438 L20.53125,58.5351562 C20.8007812,58.265625 20.953125,57.9023438 20.953125,57.5273438 C20.953125,56.7539062 20.34375,56.1445312 19.5585938,56.1445312 C19.1835938,56.1445312 18.8554688,56.2851562 18.5976562,56.5429688 L9.48046875,65.4492188 C9.15234375,65.7539062 8.98828125,66.1289062 8.98828125,66.5390625 C8.98828125,66.9492188 9.15234375,67.3007812 9.46875,67.6171875 L18.5859375,76.5351562 C18.8554688,76.7929688 19.1835938,76.9335938 19.5585938,76.9335938 Z" id="Chevron" fill="#007AFF" fill-rule="nonzero"></path>
                <path d="M32.2006836,72 C34.7490234,72 36.2597656,70.746582 36.2597656,68.6381836 C36.2597656,67.0527344 35.222168,65.9321289 33.5869141,65.7246094 L33.5869141,65.5917969 C34.7407227,65.3842773 35.6538086,64.2553711 35.6538086,63.0102539 C35.6538086,61.1757812 34.309082,60.0219727 32.109375,60.0219727 L27.5273438,60.0219727 L27.5273438,72 L32.2006836,72 Z M31.4121094,65.1850586 L29.0214844,65.1850586 L29.0214844,61.3417969 L31.7939453,61.3417969 C33.2797852,61.3417969 34.1430664,62.0473633 34.1430664,63.2675781 C34.1430664,64.5375977 33.2216797,65.1850586 31.4121094,65.1850586 Z M31.9765625,70.6801758 L29.0214844,70.6801758 L29.0214844,66.4716797 L31.8354492,66.4716797 C33.7446289,66.4716797 34.7241211,67.1772461 34.7241211,68.5634766 C34.7241211,69.949707 33.777832,70.6801758 31.9765625,70.6801758 Z M40.5998125,72.1577148 C41.795125,72.1577148 42.7746172,71.6347656 43.3556719,70.6801758 L43.4884844,70.6801758 L43.4884844,72 L44.8498125,72 L44.8498125,65.8740234 C44.8498125,64.0146484 43.6295977,62.894043 41.4464922,62.894043 C39.5373125,62.894043 38.1261797,63.840332 37.9352617,65.2763672 L39.3795977,65.2763672 C39.5788164,64.5708008 40.3258867,64.1640625 41.3966875,64.1640625 C42.7331133,64.1640625 43.4220781,64.7700195 43.4220781,65.8740234 L43.4220781,66.6875 L40.8405352,66.8452148 C38.7570391,66.9697266 37.5783281,67.8911133 37.5783281,69.4931641 C37.5783281,71.128418 38.8649492,72.1577148 40.5998125,72.1577148 Z M40.8654375,70.9042969 C39.8278398,70.9042969 39.0558672,70.3730469 39.0558672,69.4599609 C39.0558672,68.5634766 39.6535234,68.090332 41.0148516,67.9990234 L43.4220781,67.8413086 L43.4220781,68.6630859 C43.4220781,69.9414062 42.3346758,70.9042969 40.8654375,70.9042969 Z M50.7421055,72.1577148 C52.8920078,72.1577148 54.2284336,70.9458008 54.4857578,69.3022461 L53.0414219,69.3022461 C52.7757969,70.3149414 51.937418,70.8710938 50.7338047,70.8710938 C49.1400547,70.8710938 48.1107578,69.5595703 48.1107578,67.4926758 C48.1107578,65.4672852 49.1234531,64.1806641 50.7338047,64.1806641 C52.0204258,64.1806641 52.809,64.902832 53.0414219,65.7910156 L54.4857578,65.7910156 C54.2367344,64.1972656 52.9086094,62.894043 50.7338047,62.894043 C48.2269687,62.894043 46.6332187,64.7036133 46.6332187,67.4926758 C46.6332187,70.3398438 48.2352695,72.1577148 50.7421055,72.1577148 Z M57.6968984,72 L57.6968984,68.6049805 L58.5518789,67.8081055 L61.9053945,72 L63.7232656,72 L59.6143789,66.8867188 L63.4659414,63.0517578 L61.7144766,63.0517578 L57.8297109,66.9614258 L57.6968984,66.9614258 L57.6968984,59.4990234 L56.2691641,59.4990234 L56.2691641,72 L57.6968984,72 Z" id="Back" fill="#007AFF" fill-rule="nonzero"></path>
            </g>
            <g id="Group">
                <g id="Battery" transform="translate(336.000000, 17.000000)">
                    <path d="M18.9147863,0.833333333 C19.9618794,0.833333333 20.3486079,0.924684051 20.7332948,1.13041688 C21.0794397,1.31553717 21.3510962,1.58719368 21.5362165,1.93333853 C21.7419493,2.31802548 21.8333,2.70475396 21.8333,3.75184704 L21.8333,3.75184704 L21.8333,8.24815296 C21.8333,9.29524604 21.7419493,9.68197452 21.5362165,10.0666615 C21.3510962,10.4128063 21.0794397,10.6844628 20.7332948,10.8695831 C20.3486079,11.0753159 19.9618794,11.1666667 18.9147863,11.1666667 L18.9147863,11.1666667 L3.7518137,11.1666667 C2.70472062,11.1666667 2.31799215,11.0753159 1.9333052,10.8695831 C1.58716035,10.6844628 1.31550384,10.4128063 1.13038355,10.0666615 C0.924650717,9.68197452 0.8333,9.29524604 0.8333,8.24815296 L0.8333,8.24815296 L0.8333,3.75184704 C0.8333,2.70475396 0.924650717,2.31802548 1.13038355,1.93333853 C1.31550384,1.58719368 1.58716035,1.31553717 1.9333052,1.13041688 C2.31799215,0.924684051 2.70472062,0.833333333 3.7518137,0.833333333 L3.7518137,0.833333333 Z" id="Border" stroke="#000000" opacity="0.35"></path>
                    <path d="M23.3333,4 L23.3333,8 C24.1380311,7.66122348 24.661338,6.87313328 24.661338,6 C24.661338,5.12686672 24.1380311,4.33877652 23.3333,4" id="Cap" fill="#000000" fill-rule="nonzero" opacity="0.4"></path>
                    <path d="M4.04255685,2.33333333 L18.6240431,2.33333333 C19.218389,2.33333333 19.4339132,2.39521708 19.6511971,2.51142181 C19.8684811,2.62762654 20.0390068,2.79815226 20.1552115,3.01543622 C20.2714163,3.23272018 20.3333,3.44824434 20.3333,4.04259018 L20.3333,7.95740982 C20.3333,8.55175566 20.2714163,8.76727982 20.1552115,8.98456378 C20.0390068,9.20184774 19.8684811,9.37237346 19.6511971,9.48857819 C19.4339132,9.60478292 19.218389,9.66666667 18.6240431,9.66666667 L4.04255685,9.66666667 C3.44821101,9.66666667 3.23268684,9.60478292 3.01540288,9.48857819 C2.79811893,9.37237346 2.62759321,9.20184774 2.51138847,8.98456378 C2.39518374,8.76727982 2.3333,8.55175566 2.3333,7.95740982 L2.3333,4.04259018 C2.3333,3.44824434 2.39518374,3.23272018 2.51138847,3.01543622 C2.62759321,2.79815226 2.79811893,2.62762654 3.01540288,2.51142181 C3.23268684,2.39521708 3.44821101,2.33333333 4.04255685,2.33333333 Z" id="Capacity" fill="#000000" fill-rule="nonzero"></path>
                </g>
                <path d="M323.667069,19.6151501 C325.891802,19.6152475 328.031463,20.4693583 329.643817,22.0009506 C329.765231,22.1191953 329.959299,22.1177037 330.078879,21.9976068 L331.23949,20.8272772 C331.300039,20.7663644 331.333797,20.6838545 331.3333,20.5980054 C331.332792,20.5121564 331.29807,20.4300466 331.236813,20.3698455 C327.0049,16.3176151 320.328569,16.3176151 316.096657,20.3698455 C316.035354,20.4300019 316.000572,20.5120868 316,20.5979359 C315.999442,20.6837851 316.03314,20.7663201 316.093645,20.8272772 L317.254591,21.9976068 C317.374094,22.117885 317.568312,22.1193777 317.689653,22.0009506 C319.302212,20.4692577 321.442119,19.6151445 323.667069,19.6151501 L323.667069,19.6151501 Z M323.667069,23.4227339 C324.889415,23.4226591 326.068141,23.8766124 326.97421,24.6963869 C327.09676,24.8127317 327.289808,24.8102093 327.409272,24.6907025 L328.568544,23.5203729 C328.629594,23.4589857 328.663468,23.3757088 328.662605,23.2891732 C328.661707,23.2026376 328.626146,23.120066 328.563859,23.0599317 C325.804697,20.4955232 321.531784,20.4955232 318.772622,23.0599317 C318.710297,23.1200652 318.674737,23.2026782 318.673905,23.2892418 C318.673102,23.3758053 318.707094,23.4590744 318.768272,23.5203729 L319.92721,24.6907025 C320.046673,24.8102093 320.239722,24.8127317 320.362272,24.6963869 C321.267742,23.877154 322.445531,23.4232396 323.667069,23.4227339 L323.667069,23.4227339 Z M325.894921,26.2158092 C325.956921,26.1550129 325.991064,26.0713489 325.989291,25.9845705 C325.987517,25.897792 325.949983,25.8155907 325.885551,25.7573743 C324.604891,24.6751031 322.729248,24.6751031 321.448588,25.7573743 C321.384111,25.8155439 321.346516,25.8977193 321.344679,25.9844982 C321.342841,26.0712771 321.376925,26.1549675 321.438883,26.2158092 L323.444518,28.2378044 C323.503302,28.2972294 323.583446,28.3306727 323.667069,28.3306727 C323.750693,28.3306727 323.830837,28.2972294 323.88962,28.2378044 L325.894921,26.2158092 Z" id="Wifi" fill="#000000" fill-rule="nonzero"></path>
                <path d="M295,24.3333337 L296,24.3333337 C296.552285,24.3333337 297,24.7810489 297,25.3333337 L297,27.3333337 C297,27.8856184 296.552285,28.3333337 296,28.3333337 L295,28.3333337 C294.447715,28.3333337 294,27.8856184 294,27.3333337 L294,25.3333337 C294,24.7810489 294.447715,24.3333337 295,24.3333337 L295,24.3333337 Z M299.666667,22.3333337 L300.666667,22.3333337 C301.218951,22.3333337 301.666667,22.7810489 301.666667,23.3333337 L301.666667,27.3333337 C301.666667,27.8856184 301.218951,28.3333337 300.666667,28.3333337 L299.666667,28.3333337 C299.114382,28.3333337 298.666667,27.8856184 298.666667,27.3333337 L298.666667,23.3333337 C298.666667,22.7810489 299.114382,22.3333337 299.666667,22.3333337 Z M304.333333,20.0000003 L305.333333,20.0000003 C305.885618,20.0000003 306.333333,20.4477156 306.333333,21.0000003 L306.333333,27.3333337 C306.333333,27.8856184 305.885618,28.3333337 305.333333,28.3333337 L304.333333,28.3333337 C303.781049,28.3333337 303.333333,27.8856184 303.333333,27.3333337 L303.333333,21.0000003 C303.333333,20.4477156 303.781049,20.0000003 304.333333,20.0000003 Z M309,17.666667 L310,17.666667 C310.552285,17.666667 311,18.1143823 311,18.666667 L311,27.3333337 C311,27.8856184 310.552285,28.3333337 310,28.3333337 L309,28.3333337 C308.447715,28.3333337 308,27.8856184 308,27.3333337 L308,18.666667 C308,18.1143823 308.447715,17.666667 309,17.666667 L309,17.666667 Z" id="Cellular-Connection" fill="#000000" fill-rule="nonzero"></path>
                <path d="M35.9507487,28.5896477 C38.638737,28.5896477 40.2354167,26.4875969 40.2354167,22.9207023 C40.2354167,19.4197258 38.5361979,17.5007805 36.0093424,17.5007805 C33.7095378,17.5007805 32.0835612,19.0461906 32.0835612,21.2068352 C32.0835612,23.2356438 33.5484049,24.7151359 35.5625651,24.7151359 C36.8003581,24.7151359 37.803776,24.1438469 38.3018229,23.1404289 L38.4263346,23.1404289 C38.404362,25.6233391 37.5181315,27.0442375 35.9727214,27.0442375 C35.0645182,27.0442375 34.3394206,26.5461906 34.1123698,25.7405266 L32.2300456,25.7405266 C32.5376628,27.461718 34.0171549,28.5896477 35.9507487,28.5896477 Z M36.0166667,23.2576164 C34.7861979,23.2576164 33.9365885,22.3933586 33.9365885,21.1482414 C33.9365885,19.9543938 34.8301432,19.0388664 36.0239909,19.0388664 C37.2178385,19.0388664 38.1113932,19.9690422 38.1113932,21.1848625 C38.1113932,22.3860344 37.2398112,23.2576164 36.0166667,23.2576164 Z M43.2532878,21.4924797 C43.9490885,21.4924797 44.4251628,21.0090813 44.4251628,20.3572258 C44.4251628,19.7053703 43.9490885,19.2219719 43.2532878,19.2219719 C42.5648112,19.2219719 42.0814128,19.7053703 42.0814128,20.3572258 C42.0814128,21.0090813 42.5648112,21.4924797 43.2532878,21.4924797 Z M43.2532878,26.8684563 C43.9490885,26.8684563 44.4251628,26.3777336 44.4251628,25.7332023 C44.4251628,25.0813469 43.9490885,24.5979484 43.2532878,24.5979484 C42.5648112,24.5979484 42.0814128,25.0813469 42.0814128,25.7332023 C42.0814128,26.3777336 42.5648112,26.8684563 43.2532878,26.8684563 Z M53.2364909,28.3333 L53.2364909,26.3044914 L54.6647135,26.3044914 L54.6647135,24.7444328 L53.2364909,24.7444328 L53.2364909,17.7644523 L50.5704753,17.7644523 C49.1349284,19.9470695 47.6334635,22.3787102 46.2638346,24.7590813 L46.2638346,26.3044914 L51.4274089,26.3044914 L51.4274089,28.3333 L53.2364909,28.3333 Z M51.4567057,24.7883781 L48.0143229,24.7883781 L48.0143229,24.6785148 C49.0470378,22.8840813 50.2701823,20.9285148 51.3541667,19.2732414 L51.4567057,19.2732414 L51.4567057,24.7883781 Z M60.5829753,28.3333 L60.5829753,17.7644523 L58.700651,17.7644523 L55.9394206,19.7053703 L55.9394206,21.4851555 L58.5688151,19.6248039 L58.6933268,19.6248039 L58.6933268,28.3333 L60.5829753,28.3333 Z" id="9:41" fill="#000000" fill-rule="nonzero"></path>
            </g>
        </g>
        <g id="BetterSafariView">
            <rect id="Background" fill="#F2F2F7" x="0" y="0" width="375" height="375"></rect>
            <g id="Navigation-Bar">
                <g id="Background">
                    <polygon fill-opacity="0.94" fill="#F9F9F9" points="0 0 375 0 375 88 0 88"></polygon>
                    <line x1="0" y1="88.1666667" x2="375" y2="88.1666667" id="Seperator" stroke-opacity="0.3" stroke="#000000" stroke-width="0.333333333"></line>
                </g>
                <g id="Group" transform="translate(0.000000, 44.000000)" fill-rule="nonzero">
                    <g>
                        <path d="M348.496589,28 C352.624193,28 355.931484,24.6861979 355.931484,20.5520833 C355.931484,20.1223958 355.625495,19.8164062 355.195807,19.8164062 C354.779141,19.8164062 354.499193,20.1223958 354.499193,20.5520833 C354.499193,23.8984375 351.829922,26.5677083 348.496589,26.5677083 C345.156745,26.5677083 342.487474,23.8984375 342.487474,20.5520833 C342.487474,17.1992187 345.137214,14.5429687 348.477057,14.5429687 C349.115078,14.5429687 349.701016,14.5885417 350.215339,14.6992187 L347.669766,17.2317708 C347.533047,17.3684896 347.467943,17.53125 347.467943,17.7200521 C347.467943,18.1171875 347.767422,18.4296875 348.164557,18.4296875 C348.372891,18.4296875 348.535651,18.3580729 348.665859,18.2278646 L352.174974,14.6796875 C352.344245,14.5104167 352.415859,14.3346354 352.415859,14.1328125 C352.415859,13.9375 352.331224,13.7421875 352.174974,13.5859375 L348.665859,10.0117187 C348.542161,9.875 348.372891,9.80338542 348.158047,9.80338542 C347.767422,9.80338542 347.467943,10.1223958 347.467943,10.5195312 C347.467943,10.7148437 347.533047,10.8776042 347.663255,11.0143229 L349.935391,13.2669271 C349.46013,13.1822917 348.965339,13.1302083 348.477057,13.1302083 C344.349453,13.1302083 341.055182,16.4244792 341.055182,20.5520833 C341.055182,24.6861979 344.362474,28 348.496589,28 Z" id="arrow.clockwise" fill="#007AFF"></path>
                        <path d="M317.8317,25.1901042 C318.314122,25.1901042 318.625157,24.9044596 318.625157,24.4601237 C318.625157,24.3077799 318.593419,24.1681315 318.529942,23.9777018 L314.708653,13.8151042 C314.505528,13.2565104 314.137364,12.9835612 313.540684,12.9835612 C312.969395,12.9835612 312.594883,13.2565104 312.398106,13.8087565 L308.564122,24.0094401 C308.494298,24.1871745 308.475255,24.3331706 308.475255,24.4791667 C308.475255,24.9171549 308.767247,25.1901042 309.243321,25.1901042 C309.674962,25.1901042 309.89713,24.9996745 310.055821,24.5299479 L311.109532,21.6544596 L315.965489,21.6544596 L317.012852,24.5299479 C317.177891,24.9996745 317.400059,25.1901042 317.8317,25.1901042 Z M315.565587,20.3722331 L311.503087,20.3722331 L313.508946,14.7736003 L313.559727,14.7736003 L315.565587,20.3722331 Z M306.64713,25.1901042 C307.072423,25.1901042 307.370762,24.9108073 307.370762,24.5045573 C307.370762,24.3522135 307.339024,24.1998698 307.262852,23.9967448 L304.768223,17.3888346 C304.577794,16.8619792 304.23502,16.569987 303.676426,16.569987 C303.143223,16.569987 302.806798,16.8683268 302.616368,17.3888346 L300.121739,23.9967448 C300.045567,24.1935221 300.020176,24.3649089 300.020176,24.5045573 C300.020176,24.9171549 300.305821,25.1901042 300.750157,25.1901042 C301.111973,25.1901042 301.340489,25.0060221 301.486485,24.5426432 L302.146641,22.6891276 L305.231602,22.6891276 L305.891758,24.5489909 C306.037755,25.0123698 306.26627,25.1901042 306.64713,25.1901042 Z M304.876133,21.5402018 L302.50211,21.5402018 L303.63834,18.175944 L303.727208,18.175944 L304.876133,21.5402018 Z" id="textformat.size" fill="#007AFF"></path>
                        <path d="M139.507672,25.1826172 C141.649273,25.1826172 143.168316,24.1533203 143.541852,22.5180664 L141.591168,22.5180664 C141.29234,23.1987305 140.586773,23.5805664 139.565777,23.5805664 C138.21275,23.5805664 137.341168,22.6176758 137.291363,21.0820312 L137.291363,20.9741211 L143.63316,20.9741211 L143.63316,20.3183594 C143.63316,17.4711914 142.080914,15.7529297 139.49107,15.7529297 C136.859723,15.7529297 135.224469,17.5874023 135.224469,20.5009766 C135.224469,23.40625 136.83482,25.1826172 139.507672,25.1826172 Z M141.574566,19.6044922 L137.299664,19.6044922 C137.390973,18.2431641 138.254254,17.3549805 139.48277,17.3549805 C140.719586,17.3549805 141.533062,18.2265625 141.574566,19.6044922 Z M146.470766,25.0166016 L148.32184,21.8623047 L148.462953,21.8623047 L150.322328,25.0166016 L152.646547,25.0166016 L149.683168,20.4262695 L152.613344,15.9438477 L150.34723,15.9438477 L148.554262,19.0898438 L148.413148,19.0898438 L146.611879,15.9438477 L144.221254,15.9438477 L147.184633,20.5175781 L144.246156,25.0166016 L146.470766,25.0166016 Z M156.463645,25.1494141 C157.650656,25.1494141 158.64675,24.6347656 159.153098,23.7548828 L159.294211,23.7548828 L159.294211,25 L161.278098,25 L161.278098,18.7993164 C161.278098,16.8818359 159.966574,15.7529297 157.634055,15.7529297 C155.475852,15.7529297 153.97341,16.765625 153.807395,18.3510742 L155.749777,18.3510742 C155.940695,17.7285156 156.588156,17.3881836 157.534445,17.3881836 C158.64675,17.3881836 159.244406,17.8945312 159.244406,18.7993164 L159.244406,19.5795898 L156.903586,19.7207031 C154.695578,19.8452148 153.458762,20.7998047 153.458762,22.4267578 C153.458762,24.0869141 154.71218,25.1494141 156.463645,25.1494141 Z M157.069602,23.5639648 C156.156516,23.5639648 155.500754,23.1074219 155.500754,22.3271484 C155.500754,21.5717773 156.040305,21.1484375 157.194113,21.0737305 L159.244406,20.9326172 L159.244406,21.6713867 C159.244406,22.7504883 158.314719,23.5639648 157.069602,23.5639648 Z M165.402324,25 L165.402324,19.4799805 C165.402324,18.3510742 166.157695,17.4960938 167.178691,17.4960938 C168.191387,17.4960938 168.822246,18.1103516 168.822246,19.1147461 L168.822246,25 L170.822734,25 L170.822734,19.3305664 C170.822734,18.2929688 171.528301,17.4960938 172.599102,17.4960938 C173.703105,17.4960938 174.259258,18.0854492 174.259258,19.2641602 L174.259258,25 L176.309551,25 L176.309551,18.7578125 C176.309551,16.8735352 175.213848,15.7529297 173.395977,15.7529297 C172.134258,15.7529297 171.088359,16.4003906 170.640117,17.3881836 L170.499004,17.3881836 C170.117168,16.3837891 169.245586,15.7529297 167.992168,15.7529297 C166.788555,15.7529297 165.858867,16.3671875 165.46873,17.3881836 L165.327617,17.3881836 L165.327617,15.9272461 L163.34373,15.9272461 L163.34373,25 L165.402324,25 Z M180.400574,28.0131836 L180.400574,23.6220703 L180.541688,23.6220703 C181.006531,24.5849609 182.010926,25.1494141 183.314148,25.1494141 C185.605164,25.1494141 187.032898,23.3481445 187.032898,20.4677734 C187.032898,17.5625 185.588563,15.777832 183.289246,15.777832 C182.044129,15.777832 180.98993,16.4003906 180.46698,17.4296875 L180.325867,17.4296875 L180.325867,15.9272461 L178.34198,15.9272461 L178.34198,28.0131836 L180.400574,28.0131836 Z M182.641785,23.4394531 C181.238953,23.4394531 180.367371,22.3022461 180.35907,20.4677734 C180.367371,18.6333008 181.247254,17.4960938 182.650086,17.4960938 C184.061219,17.4960938 184.916199,18.6083984 184.916199,20.4677734 C184.916199,22.3271484 184.06952,23.4394531 182.641785,23.4394531 Z M190.833395,25 L190.833395,12.4160156 L188.774801,12.4160156 L188.774801,25 L190.833395,25 Z M196.8585,25.1826172 C199.000102,25.1826172 200.519145,24.1533203 200.89268,22.5180664 L198.941996,22.5180664 C198.643168,23.1987305 197.937602,23.5805664 196.916605,23.5805664 C195.563578,23.5805664 194.691996,22.6176758 194.642191,21.0820312 L194.642191,20.9741211 L200.983988,20.9741211 L200.983988,20.3183594 C200.983988,17.4711914 199.431742,15.7529297 196.841898,15.7529297 C194.210551,15.7529297 192.575297,17.5874023 192.575297,20.5009766 C192.575297,23.40625 194.185648,25.1826172 196.8585,25.1826172 Z M198.925395,19.6044922 L194.650492,19.6044922 C194.741801,18.2431641 195.605082,17.3549805 196.833598,17.3549805 C198.070414,17.3549805 198.883891,18.2265625 198.925395,19.6044922 Z M204.178527,25.1660156 C204.967102,25.1660156 205.506652,24.6098633 205.506652,23.8710938 C205.506652,23.140625 204.967102,22.5844727 204.178527,22.5844727 C203.398254,22.5844727 202.850402,23.140625 202.850402,23.8710938 C202.850402,24.6098633 203.398254,25.1660156 204.178527,25.1660156 Z M211.390645,25.1826172 C213.689961,25.1826172 215.117695,23.9042969 215.341816,22.0283203 L213.382832,22.0283203 C213.167012,22.9829102 212.453145,23.4892578 211.382344,23.4892578 C209.979512,23.4892578 209.132832,22.3686523 209.132832,20.4428711 C209.132832,18.550293 209.971211,17.4379883 211.382344,17.4379883 C212.51125,17.4379883 213.191914,18.0771484 213.382832,18.9570312 L215.341816,18.9570312 C215.125996,17.0810547 213.714863,15.7529297 211.382344,15.7529297 C208.651387,15.7529297 207.049336,17.5043945 207.049336,20.4428711 C207.049336,23.4145508 208.659688,25.1826172 211.390645,25.1826172 Z M220.81907,25.1826172 C223.533426,25.1826172 225.185281,23.40625 225.185281,20.4594727 C225.185281,17.5292969 223.525125,15.7529297 220.81907,15.7529297 C218.121316,15.7529297 216.452859,17.5375977 216.452859,20.4594727 C216.452859,23.40625 218.096414,25.1826172 220.81907,25.1826172 Z M220.81907,23.4975586 C219.383035,23.4975586 218.561258,22.3852539 218.561258,20.4677734 C218.561258,18.550293 219.383035,17.4379883 220.81907,17.4379883 C222.246805,17.4379883 223.068582,18.550293 223.068582,20.4677734 C223.068582,22.3852539 222.255105,23.4975586 220.81907,23.4975586 Z M228.91107,25 L228.91107,19.4799805 C228.91107,18.3510742 229.666441,17.4960938 230.687437,17.4960938 C231.700133,17.4960938 232.330992,18.1103516 232.330992,19.1147461 L232.330992,25 L234.33148,25 L234.33148,19.3305664 C234.33148,18.2929688 235.037047,17.4960938 236.107848,17.4960938 C237.211852,17.4960938 237.768004,18.0854492 237.768004,19.2641602 L237.768004,25 L239.818297,25 L239.818297,18.7578125 C239.818297,16.8735352 238.722594,15.7529297 236.904723,15.7529297 C235.643004,15.7529297 234.597105,16.4003906 234.148863,17.3881836 L234.00775,17.3881836 C233.625914,16.3837891 232.754332,15.7529297 231.500914,15.7529297 C230.297301,15.7529297 229.367613,16.3671875 228.977477,17.3881836 L228.836363,17.3881836 L228.836363,15.9272461 L226.852477,15.9272461 L226.852477,25 L228.91107,25 Z" id="example.com" fill="#000000"></path>
                        <path d="M19.9677734,25.3333333 C23.7382812,25.3333333 25.953125,22.9866536 25.953125,18.9876302 C25.953125,14.9973958 23.7294922,12.6507161 19.9677734,12.6507161 L15.6171875,12.6507161 L15.6171875,25.3333333 L19.9677734,25.3333333 Z M19.8623047,23.9095052 L17.1992187,23.9095052 L17.1992187,14.0745443 L19.8623047,14.0745443 C22.6748047,14.0745443 24.3359375,15.9026693 24.3359375,19.0052083 C24.3359375,22.0989583 22.6923828,23.9095052 19.8623047,23.9095052 Z M31.9455078,25.5003255 C34.64375,25.5003255 36.3136719,23.6370443 36.3136719,20.5960286 C36.3136719,17.546224 34.64375,15.6917318 31.9455078,15.6917318 C29.2472656,15.6917318 27.5773437,17.546224 27.5773437,20.5960286 C27.5773437,23.6370443 29.2472656,25.5003255 31.9455078,25.5003255 Z M31.9455078,24.1380208 C30.1525391,24.1380208 29.1417969,22.8372396 29.1417969,20.5960286 C29.1417969,18.3460286 30.1525391,17.0540365 31.9455078,17.0540365 C33.7384766,17.0540365 34.7492187,18.3460286 34.7492187,20.5960286 C34.7492187,22.8372396 33.7384766,24.1380208 31.9455078,24.1380208 Z M39.7484375,25.3333333 L39.7484375,19.7259115 C39.7484375,18.0647786 40.7240234,17.0540365 42.2357422,17.0540365 C43.7474609,17.0540365 44.4681641,17.8626302 44.4681641,19.5677083 L44.4681641,25.3333333 L45.9798828,25.3333333 L45.9798828,19.1985677 C45.9798828,16.9485677 44.7933594,15.6917318 42.6664062,15.6917318 C41.2162109,15.6917318 40.2933594,16.3069661 39.81875,17.3528646 L39.678125,17.3528646 L39.678125,15.858724 L38.2367187,15.858724 L38.2367187,25.3333333 L39.7484375,25.3333333 Z M52.0865234,25.5003255 C54.1607422,25.5003255 55.6373047,24.4983724 56.0767578,22.8811849 L54.5650391,22.8811849 C54.1695312,23.7161458 53.3433594,24.164388 52.1216797,24.164388 C50.5132812,24.164388 49.4673828,22.9778646 49.3882812,21.1057943 L49.3882812,21.0354818 L56.1998047,21.0354818 L56.1998047,20.4554036 C56.1998047,17.5110677 54.6441406,15.6917318 52.0865234,15.6917318 C49.4849609,15.6917318 47.8150391,17.6253255 47.8150391,20.6048177 C47.8150391,23.601888 49.4585937,25.5003255 52.0865234,25.5003255 Z M54.6089844,19.8138021 L49.3882812,19.8138021 C49.5025391,18.1350911 50.5572266,17.0276693 52.0689453,17.0276693 C53.571875,17.0276693 54.5738281,18.1350911 54.6089844,19.8138021 Z" id="Done" fill="#007AFF"></path>
                    </g>
                </g>
            </g>
            <g id="Group">
                <g id="Battery" transform="translate(336.000000, 17.000000)">
                    <path d="M18.9147863,0.833333333 C19.9618794,0.833333333 20.3486079,0.924684051 20.7332948,1.13041688 C21.0794397,1.31553717 21.3510962,1.58719368 21.5362165,1.93333853 C21.7419493,2.31802548 21.8333,2.70475396 21.8333,3.75184704 L21.8333,3.75184704 L21.8333,8.24815296 C21.8333,9.29524604 21.7419493,9.68197452 21.5362165,10.0666615 C21.3510962,10.4128063 21.0794397,10.6844628 20.7332948,10.8695831 C20.3486079,11.0753159 19.9618794,11.1666667 18.9147863,11.1666667 L18.9147863,11.1666667 L3.7518137,11.1666667 C2.70472062,11.1666667 2.31799215,11.0753159 1.9333052,10.8695831 C1.58716035,10.6844628 1.31550384,10.4128063 1.13038355,10.0666615 C0.924650717,9.68197452 0.8333,9.29524604 0.8333,8.24815296 L0.8333,8.24815296 L0.8333,3.75184704 C0.8333,2.70475396 0.924650717,2.31802548 1.13038355,1.93333853 C1.31550384,1.58719368 1.58716035,1.31553717 1.9333052,1.13041688 C2.31799215,0.924684051 2.70472062,0.833333333 3.7518137,0.833333333 L3.7518137,0.833333333 Z" id="Border" stroke="#000000" opacity="0.35"></path>
                    <path d="M23.3333,4 L23.3333,8 C24.1380311,7.66122348 24.661338,6.87313328 24.661338,6 C24.661338,5.12686672 24.1380311,4.33877652 23.3333,4" id="Cap" fill="#000000" fill-rule="nonzero" opacity="0.4"></path>
                    <path d="M4.04255685,2.33333333 L18.6240431,2.33333333 C19.218389,2.33333333 19.4339132,2.39521708 19.6511971,2.51142181 C19.8684811,2.62762654 20.0390068,2.79815226 20.1552115,3.01543622 C20.2714163,3.23272018 20.3333,3.44824434 20.3333,4.04259018 L20.3333,7.95740982 C20.3333,8.55175566 20.2714163,8.76727982 20.1552115,8.98456378 C20.0390068,9.20184774 19.8684811,9.37237346 19.6511971,9.48857819 C19.4339132,9.60478292 19.218389,9.66666667 18.6240431,9.66666667 L4.04255685,9.66666667 C3.44821101,9.66666667 3.23268684,9.60478292 3.01540288,9.48857819 C2.79811893,9.37237346 2.62759321,9.20184774 2.51138847,8.98456378 C2.39518374,8.76727982 2.3333,8.55175566 2.3333,7.95740982 L2.3333,4.04259018 C2.3333,3.44824434 2.39518374,3.23272018 2.51138847,3.01543622 C2.62759321,2.79815226 2.79811893,2.62762654 3.01540288,2.51142181 C3.23268684,2.39521708 3.44821101,2.33333333 4.04255685,2.33333333 Z" id="Capacity" fill="#000000" fill-rule="nonzero"></path>
                </g>
                <path d="M323.667069,19.6151501 C325.891802,19.6152475 328.031463,20.4693583 329.643817,22.0009506 C329.765231,22.1191953 329.959299,22.1177037 330.078879,21.9976068 L331.23949,20.8272772 C331.300039,20.7663644 331.333797,20.6838545 331.3333,20.5980054 C331.332792,20.5121564 331.29807,20.4300466 331.236813,20.3698455 C327.0049,16.3176151 320.328569,16.3176151 316.096657,20.3698455 C316.035354,20.4300019 316.000572,20.5120868 316,20.5979359 C315.999442,20.6837851 316.03314,20.7663201 316.093645,20.8272772 L317.254591,21.9976068 C317.374094,22.117885 317.568312,22.1193777 317.689653,22.0009506 C319.302212,20.4692577 321.442119,19.6151445 323.667069,19.6151501 L323.667069,19.6151501 Z M323.667069,23.4227339 C324.889415,23.4226591 326.068141,23.8766124 326.97421,24.6963869 C327.09676,24.8127317 327.289808,24.8102093 327.409272,24.6907025 L328.568544,23.5203729 C328.629594,23.4589857 328.663468,23.3757088 328.662605,23.2891732 C328.661707,23.2026376 328.626146,23.120066 328.563859,23.0599317 C325.804697,20.4955232 321.531784,20.4955232 318.772622,23.0599317 C318.710297,23.1200652 318.674737,23.2026782 318.673905,23.2892418 C318.673102,23.3758053 318.707094,23.4590744 318.768272,23.5203729 L319.92721,24.6907025 C320.046673,24.8102093 320.239722,24.8127317 320.362272,24.6963869 C321.267742,23.877154 322.445531,23.4232396 323.667069,23.4227339 L323.667069,23.4227339 Z M325.894921,26.2158092 C325.956921,26.1550129 325.991064,26.0713489 325.989291,25.9845705 C325.987517,25.897792 325.949983,25.8155907 325.885551,25.7573743 C324.604891,24.6751031 322.729248,24.6751031 321.448588,25.7573743 C321.384111,25.8155439 321.346516,25.8977193 321.344679,25.9844982 C321.342841,26.0712771 321.376925,26.1549675 321.438883,26.2158092 L323.444518,28.2378044 C323.503302,28.2972294 323.583446,28.3306727 323.667069,28.3306727 C323.750693,28.3306727 323.830837,28.2972294 323.88962,28.2378044 L325.894921,26.2158092 Z" id="Wifi" fill="#000000" fill-rule="nonzero"></path>
                <path d="M295,24.3333337 L296,24.3333337 C296.552285,24.3333337 297,24.7810489 297,25.3333337 L297,27.3333337 C297,27.8856184 296.552285,28.3333337 296,28.3333337 L295,28.3333337 C294.447715,28.3333337 294,27.8856184 294,27.3333337 L294,25.3333337 C294,24.7810489 294.447715,24.3333337 295,24.3333337 L295,24.3333337 Z M299.666667,22.3333337 L300.666667,22.3333337 C301.218951,22.3333337 301.666667,22.7810489 301.666667,23.3333337 L301.666667,27.3333337 C301.666667,27.8856184 301.218951,28.3333337 300.666667,28.3333337 L299.666667,28.3333337 C299.114382,28.3333337 298.666667,27.8856184 298.666667,27.3333337 L298.666667,23.3333337 C298.666667,22.7810489 299.114382,22.3333337 299.666667,22.3333337 Z M304.333333,20.0000003 L305.333333,20.0000003 C305.885618,20.0000003 306.333333,20.4477156 306.333333,21.0000003 L306.333333,27.3333337 C306.333333,27.8856184 305.885618,28.3333337 305.333333,28.3333337 L304.333333,28.3333337 C303.781049,28.3333337 303.333333,27.8856184 303.333333,27.3333337 L303.333333,21.0000003 C303.333333,20.4477156 303.781049,20.0000003 304.333333,20.0000003 Z M309,17.666667 L310,17.666667 C310.552285,17.666667 311,18.1143823 311,18.666667 L311,27.3333337 C311,27.8856184 310.552285,28.3333337 310,28.3333337 L309,28.3333337 C308.447715,28.3333337 308,27.8856184 308,27.3333337 L308,18.666667 C308,18.1143823 308.447715,17.666667 309,17.666667 L309,17.666667 Z" id="Cellular-Connection" fill="#000000" fill-rule="nonzero"></path>
                <path d="M35.9507487,28.5896477 C38.638737,28.5896477 40.2354167,26.4875969 40.2354167,22.9207023 C40.2354167,19.4197258 38.5361979,17.5007805 36.0093424,17.5007805 C33.7095378,17.5007805 32.0835612,19.0461906 32.0835612,21.2068352 C32.0835612,23.2356438 33.5484049,24.7151359 35.5625651,24.7151359 C36.8003581,24.7151359 37.803776,24.1438469 38.3018229,23.1404289 L38.4263346,23.1404289 C38.404362,25.6233391 37.5181315,27.0442375 35.9727214,27.0442375 C35.0645182,27.0442375 34.3394206,26.5461906 34.1123698,25.7405266 L32.2300456,25.7405266 C32.5376628,27.461718 34.0171549,28.5896477 35.9507487,28.5896477 Z M36.0166667,23.2576164 C34.7861979,23.2576164 33.9365885,22.3933586 33.9365885,21.1482414 C33.9365885,19.9543938 34.8301432,19.0388664 36.0239909,19.0388664 C37.2178385,19.0388664 38.1113932,19.9690422 38.1113932,21.1848625 C38.1113932,22.3860344 37.2398112,23.2576164 36.0166667,23.2576164 Z M43.2532878,21.4924797 C43.9490885,21.4924797 44.4251628,21.0090813 44.4251628,20.3572258 C44.4251628,19.7053703 43.9490885,19.2219719 43.2532878,19.2219719 C42.5648112,19.2219719 42.0814128,19.7053703 42.0814128,20.3572258 C42.0814128,21.0090813 42.5648112,21.4924797 43.2532878,21.4924797 Z M43.2532878,26.8684563 C43.9490885,26.8684563 44.4251628,26.3777336 44.4251628,25.7332023 C44.4251628,25.0813469 43.9490885,24.5979484 43.2532878,24.5979484 C42.5648112,24.5979484 42.0814128,25.0813469 42.0814128,25.7332023 C42.0814128,26.3777336 42.5648112,26.8684563 43.2532878,26.8684563 Z M53.2364909,28.3333 L53.2364909,26.3044914 L54.6647135,26.3044914 L54.6647135,24.7444328 L53.2364909,24.7444328 L53.2364909,17.7644523 L50.5704753,17.7644523 C49.1349284,19.9470695 47.6334635,22.3787102 46.2638346,24.7590813 L46.2638346,26.3044914 L51.4274089,26.3044914 L51.4274089,28.3333 L53.2364909,28.3333 Z M51.4567057,24.7883781 L48.0143229,24.7883781 L48.0143229,24.6785148 C49.0470378,22.8840813 50.2701823,20.9285148 51.3541667,19.2732414 L51.4567057,19.2732414 L51.4567057,24.7883781 Z M60.5829753,28.3333 L60.5829753,17.7644523 L58.700651,17.7644523 L55.9394206,19.7053703 L55.9394206,21.4851555 L58.5688151,19.6248039 L58.6933268,19.6248039 L58.6933268,28.3333 L60.5829753,28.3333 Z" id="9:41" fill="#000000" fill-rule="nonzero"></path>
            </g>
        </g>
    </g>
</svg>