<?xml version="1.0" encoding="UTF-8"?>
<svg width="90px" height="90px" viewBox="0 0 90 90" version="1.1" xmlns="http://www.w3.org/2000/svg" xmlns:xlink="http://www.w3.org/1999/xlink">
    <title>FullScreenSafariView-Icon</title>
    <defs>
        <linearGradient x1="50%" y1="0%" x2="50%" y2="100%" id="linearGradient-1">
            <stop stop-color="#1AC9FC" offset="0%"></stop>
            <stop stop-color="#1D70F2" offset="100%"></stop>
        </linearGradient>
    </defs>
    <g id="FullScreenSafariView-Icon" stroke="none" stroke-width="1" fill="none" fill-rule="evenodd">
        <path d="M25.5747552,-1.03325072e-15 L64.4252448,1.03325072e-15 C73.3181443,-6.00348425e-16 76.5429246,0.925935484 79.7940357,2.66464876 C83.0451469,4.40336203 85.596638,6.9548531 87.3353512,10.2059643 C89.0740645,13.4570754 90,16.6818557 90,25.5747552 L90,64.4252448 C90,73.3181443 89.0740645,76.5429246 87.3353512,79.7940357 C85.596638,83.0451469 83.0451469,85.596638 79.7940357,87.3353512 C76.5429246,89.0740645 73.3181443,90 64.4252448,90 L25.5747552,90 C16.6818557,90 13.4570754,89.0740645 10.2059643,87.3353512 C6.9548531,85.596638 4.40336203,83.0451469 2.66464876,79.7940357 C0.925935484,76.5429246 4.00232283e-16,73.3181443 -6.88833815e-16,64.4252448 L6.88833815e-16,25.5747552 C-4.00232283e-16,16.6818557 0.925935484,13.4570754 2.66464876,10.2059643 C4.40336203,6.9548531 6.9548531,4.40336203 10.2059643,2.66464876 C13.4570754,0.925935484 16.6818557,6.00348425e-16 25.5747552,-1.03325072e-15 Z" id="Outer-Capsule" fill="url(#linearGradient-1)"></path>
        <path d="M66.1169007,6 C72.3352439,6 74.5901654,6.64745864 76.8634988,7.86325061 C79.1368321,9.07904258 80.9209574,10.8631679 82.1367494,13.1365012 C83.3525414,15.4098346 84,17.6647561 84,23.8830993 L84,66.1169007 C84,72.3352439 83.3525414,74.5901654 82.1367494,76.8634988 C80.9209574,79.1368321 79.1368321,80.9209574 76.8634988,82.1367494 C74.5901654,83.3525414 72.3352439,84 66.1169007,84 L23.8830993,84 C17.6647561,84 15.4098346,83.3525414 13.1365012,82.1367494 C10.8631679,80.9209574 9.07904258,79.1368321 7.86325061,76.8634988 C6.64745864,74.5901654 6,72.3352439 6,66.1169007 L6,23.8830993 C6,17.6647561 6.64745864,15.4098346 7.86325061,13.1365012 C9.07904258,10.8631679 10.8631679,9.07904258 13.1365012,7.86325061 C15.4098346,6.64745864 17.6647561,6 23.8830993,6 L66.1169007,6 Z M44.9764706,21 C31.8705882,21 21,31.8941176 21,45 C21,58.1294118 31.8941176,69 45,69 C58.1294118,69 69,58.1294118 69,45 C69,31.8941176 58.1058824,21 44.9764706,21 Z M54.9557752,33.0757977 C56.5249949,32.4134745 57.5896194,33.6117647 56.8588235,35.1647059 L56.8588235,35.1647059 L50.2941176,48.6470588 L50.1768471,48.8602353 C49.8117647,49.4828235 49.3247059,49.9529412 48.6470588,50.2705882 L48.6470588,50.2705882 L35.1411765,56.8823529 L35.005049,56.9437016 C33.5179727,57.5630368 32.3868512,56.36609 33.1176471,54.8588235 L33.1176471,54.8588235 L39.7058824,41.3529412 L39.8232642,41.1422195 C40.2211959,40.4642684 40.6898396,40.026738 41.3529412,39.7058824 L41.3529412,39.7058824 L54.8117647,33.1411765 Z M45,42.1529412 C43.4,42.1529412 42.1294118,43.4235294 42.1294118,45.0235294 C42.1294118,46.6235294 43.4,47.9176471 45,47.9176471 C46.6,47.9176471 47.8941176,46.6235294 47.8941176,45.0235294 C47.8941176,43.4235294 46.6,42.1529412 45,42.1529412 Z" id="White-Mask" fill="#FFFFFF"></path>
    </g>
</svg>