<?xml version="1.0" encoding="UTF-8"?>
<svg width="620px" height="90px" viewBox="0 0 620 90" version="1.1" xmlns="http://www.w3.org/2000/svg" xmlns:xlink="http://www.w3.org/1999/xlink">
    <title>FullScreenSafariView-Logotype</title>
    <g id="FullScreenSafariView-Logotype" stroke="none" stroke-width="1" fill="none" fill-rule="evenodd">
        <path d="M30.6689453,66 L30.6689453,49.359375 L47.8662109,49.359375 L47.8662109,42.3574219 L30.6689453,42.3574219 L30.6689453,31.0195312 L49.5068359,31.0195312 L49.5068359,23.7246094 L21.8212891,23.7246094 L21.8212891,66 L30.6689453,66 Z M65.1513672,66.5859375 C69.8974609,66.5859375 73.0029297,64.3007812 74.5556641,60.3457031 L74.7314453,60.3457031 L74.7314453,66 L82.9931641,66 L82.9931641,34.59375 L74.4384766,34.59375 L74.4384766,52.5820312 C74.4384766,56.7421875 72.0654297,59.4667969 68.2568359,59.4667969 C64.4775391,59.4667969 62.3974609,57.2402344 62.3974609,53.0507812 L62.3974609,34.59375 L53.8427734,34.59375 L53.8427734,54.8378906 C53.8427734,62.1621094 58.3544922,66.5859375 65.1513672,66.5859375 Z M97.3193359,66 L97.3193359,23.7246094 L88.7646484,23.7246094 L88.7646484,66 L97.3193359,66 Z M111.850586,66 L111.850586,23.7246094 L103.295898,23.7246094 L103.295898,66 L111.850586,66 Z M133.793945,66.703125 C144.370117,66.703125 150.844727,61.4882812 150.844727,53.2265625 C150.844727,46.8105469 146.948242,43.2070312 138.012695,41.4199219 L133.530273,40.5117188 C128.549805,39.515625 126.499023,37.9042969 126.499023,35.296875 C126.499023,32.1914062 129.428711,30.140625 133.793945,30.140625 C138.24707,30.140625 141.381836,32.3085938 141.674805,35.9121094 L150.024414,35.9121094 C149.87793,28.1484375 143.666992,22.9921875 133.793945,22.9921875 C124.389648,22.9921875 117.651367,28.1191406 117.651367,35.8535156 C117.651367,42.1523438 121.782227,46.1953125 130.219727,47.8652344 L134.672852,48.7441406 C139.975586,49.828125 141.967773,51.4101562 141.967773,54.1933594 C141.967773,57.2988281 138.745117,59.5839844 134.02832,59.5839844 C129.223633,59.5839844 125.649414,57.4746094 125.092773,53.9296875 L116.743164,53.9296875 C117.006836,61.8984375 123.71582,66.703125 133.793945,66.703125 Z M169.829102,66.6738281 C178.09082,66.6738281 183.62793,61.8984375 184.067383,54.4863281 L176.098633,54.4863281 C175.571289,57.9140625 173.344727,59.9648438 169.916992,59.9648438 C165.668945,59.9648438 163.032227,56.4492188 163.032227,50.2675781 C163.032227,44.203125 165.668945,40.6289062 169.887695,40.6289062 C173.40332,40.6289062 175.600586,42.9726562 176.098633,46.2832031 L184.038086,46.2832031 C183.657227,39.1640625 178.266602,33.9199219 169.770508,33.9199219 C160.366211,33.9199219 154.360352,40.1894531 154.360352,50.2675781 C154.360352,60.5214844 160.366211,66.6738281 169.829102,66.6738281 Z M196.75293,66 L196.75293,48.4511719 C196.75293,44.0273438 199.213867,41.4492188 203.432617,41.4492188 C204.663086,41.4492188 205.834961,41.6542969 206.538086,41.9472656 L206.538086,34.4179688 C205.952148,34.2421875 205.102539,34.0957031 204.106445,34.0957031 C200.415039,34.0957031 197.749023,36.2636719 196.635742,40.2480469 L196.459961,40.2480469 L196.459961,34.59375 L188.198242,34.59375 L188.198242,66 L196.75293,66 Z M223.325195,66.6738281 C231.088867,66.6738281 236.713867,62.5429688 237.651367,56.390625 L229.799805,56.390625 C229.008789,58.7929688 226.606445,60.3457031 223.47168,60.3457031 C219.106445,60.3457031 216.264648,57.2695312 216.264648,52.7871094 L216.264648,52.2597656 L237.915039,52.2597656 L237.915039,49.6523438 C237.915039,40.1015625 232.143555,33.9199219 223.00293,33.9199219 C213.71582,33.9199219 207.856445,40.4238281 207.856445,50.4433594 C207.856445,60.4921875 213.657227,66.6738281 223.325195,66.6738281 Z M229.682617,47.015625 L216.352539,47.015625 C216.645508,43.0898438 219.34082,40.2480469 223.09082,40.2480469 C226.899414,40.2480469 229.506836,43.0019531 229.682617,47.015625 Z M256.635742,66.6738281 C264.399414,66.6738281 270.024414,62.5429688 270.961914,56.390625 L263.110352,56.390625 C262.319336,58.7929688 259.916992,60.3457031 256.782227,60.3457031 C252.416992,60.3457031 249.575195,57.2695312 249.575195,52.7871094 L249.575195,52.2597656 L271.225586,52.2597656 L271.225586,49.6523438 C271.225586,40.1015625 265.454102,33.9199219 256.313477,33.9199219 C247.026367,33.9199219 241.166992,40.4238281 241.166992,50.4433594 C241.166992,60.4921875 246.967773,66.6738281 256.635742,66.6738281 Z M262.993164,47.015625 L249.663086,47.015625 C249.956055,43.0898438 252.651367,40.2480469 256.401367,40.2480469 C260.209961,40.2480469 262.817383,43.0019531 262.993164,47.015625 Z M284.174805,66 L284.174805,47.9824219 C284.174805,43.9101562 286.606445,41.0976562 290.444336,41.0976562 C294.282227,41.0976562 296.21582,43.4414062 296.21582,47.5429688 L296.21582,66 L304.770508,66 L304.770508,45.7558594 C304.770508,38.4023438 300.844727,34.0078125 293.87207,34.0078125 C289.038086,34.0078125 285.727539,36.2929688 284.057617,40.1894531 L283.881836,40.1894531 L283.881836,34.59375 L275.620117,34.59375 L275.620117,66 L284.174805,66 Z M326.362305,66.703125 C336.938477,66.703125 343.413086,61.4882812 343.413086,53.2265625 C343.413086,46.8105469 339.516602,43.2070312 330.581055,41.4199219 L326.098633,40.5117188 C321.118164,39.515625 319.067383,37.9042969 319.067383,35.296875 C319.067383,32.1914062 321.99707,30.140625 326.362305,30.140625 C330.81543,30.140625 333.950195,32.3085938 334.243164,35.9121094 L342.592773,35.9121094 C342.446289,28.1484375 336.235352,22.9921875 326.362305,22.9921875 C316.958008,22.9921875 310.219727,28.1191406 310.219727,35.8535156 C310.219727,42.1523438 314.350586,46.1953125 322.788086,47.8652344 L327.241211,48.7441406 C332.543945,49.828125 334.536133,51.4101562 334.536133,54.1933594 C334.536133,57.2988281 331.313477,59.5839844 326.59668,59.5839844 C321.791992,59.5839844 318.217773,57.4746094 317.661133,53.9296875 L309.311523,53.9296875 C309.575195,61.8984375 316.28418,66.703125 326.362305,66.703125 Z M357.387695,66.4980469 C361.313477,66.4980469 365.209961,64.5351562 366.967773,61.1953125 L367.143555,61.1953125 L367.143555,66 L375.405273,66 L375.405273,44.4082031 C375.405273,38.0800781 370.161133,33.9199219 362.104492,33.9199219 C353.78418,33.9199219 348.598633,38.109375 348.276367,44.203125 L356.098633,44.203125 C356.508789,41.8886719 358.530273,40.3066406 361.723633,40.3066406 C364.946289,40.3066406 366.99707,42.0058594 366.99707,44.9355469 L366.99707,47.015625 L359.086914,47.484375 C351.264648,47.953125 346.870117,51.2636719 346.870117,56.9765625 C346.870117,62.6308594 351.411133,66.4980469 357.387695,66.4980469 Z M360.200195,60.3164062 C357.299805,60.3164062 355.366211,58.8515625 355.366211,56.5078125 C355.366211,54.28125 357.182617,52.8457031 360.375977,52.6113281 L366.99707,52.2011719 L366.99707,54.4863281 C366.99707,57.8847656 363.920898,60.3164062 360.200195,60.3164062 Z M391.75293,66 L391.75293,41.0390625 L397.788086,41.0390625 L397.788086,34.7402344 L391.547852,34.7402344 L391.547852,32.6601562 C391.547852,30.4335938 392.77832,29.203125 395.59082,29.203125 C396.44043,29.203125 397.290039,29.2617188 397.905273,29.3789062 L397.905273,23.7246094 C396.90918,23.5195312 395.12207,23.34375 393.540039,23.34375 C386.098633,23.34375 383.198242,26.2148438 383.198242,32.3671875 L383.198242,34.7402344 L378.920898,34.7402344 L378.920898,41.0390625 L383.198242,41.0390625 L383.198242,66 L391.75293,66 Z M409.975586,66.4980469 C413.901367,66.4980469 417.797852,64.5351562 419.555664,61.1953125 L419.731445,61.1953125 L419.731445,66 L427.993164,66 L427.993164,44.4082031 C427.993164,38.0800781 422.749023,33.9199219 414.692383,33.9199219 C406.37207,33.9199219 401.186523,38.109375 400.864258,44.203125 L408.686523,44.203125 C409.09668,41.8886719 411.118164,40.3066406 414.311523,40.3066406 C417.53418,40.3066406 419.584961,42.0058594 419.584961,44.9355469 L419.584961,47.015625 L411.674805,47.484375 C403.852539,47.953125 399.458008,51.2636719 399.458008,56.9765625 C399.458008,62.6308594 403.999023,66.4980469 409.975586,66.4980469 Z M412.788086,60.3164062 C409.887695,60.3164062 407.954102,58.8515625 407.954102,56.5078125 C407.954102,54.28125 409.770508,52.8457031 412.963867,52.6113281 L419.584961,52.2011719 L419.584961,54.4863281 C419.584961,57.8847656 416.508789,60.3164062 412.788086,60.3164062 Z M442.055664,66 L442.055664,48.4511719 C442.055664,44.0273438 444.516602,41.4492188 448.735352,41.4492188 C449.96582,41.4492188 451.137695,41.6542969 451.84082,41.9472656 L451.84082,34.4179688 C451.254883,34.2421875 450.405273,34.0957031 449.40918,34.0957031 C445.717773,34.0957031 443.051758,36.2636719 441.938477,40.2480469 L441.762695,40.2480469 L441.762695,34.59375 L433.500977,34.59375 L433.500977,66 L442.055664,66 Z M459.72168,30.3457031 C462.211914,30.3457031 464.174805,28.3535156 464.174805,25.9511719 C464.174805,23.5195312 462.211914,21.5566406 459.72168,21.5566406 C457.231445,21.5566406 455.268555,23.5195312 455.268555,25.9511719 C455.268555,28.3535156 457.231445,30.3457031 459.72168,30.3457031 Z M464.02832,66 L464.02832,34.59375 L455.473633,34.59375 L455.473633,66 L464.02832,66 Z M492.182617,66 L506.391602,23.7246094 L496.75293,23.7246094 L487.084961,56.8886719 L486.879883,56.8886719 L477.211914,23.7246094 L467.30957,23.7246094 L481.518555,66 L492.182617,66 Z M513.920898,30.3457031 C516.411133,30.3457031 518.374023,28.3535156 518.374023,25.9511719 C518.374023,23.5195312 516.411133,21.5566406 513.920898,21.5566406 C511.430664,21.5566406 509.467773,23.5195312 509.467773,25.9511719 C509.467773,28.3535156 511.430664,30.3457031 513.920898,30.3457031 Z M518.227539,66 L518.227539,34.59375 L509.672852,34.59375 L509.672852,66 L518.227539,66 Z M538.237305,66.6738281 C546.000977,66.6738281 551.625977,62.5429688 552.563477,56.390625 L544.711914,56.390625 C543.920898,58.7929688 541.518555,60.3457031 538.383789,60.3457031 C534.018555,60.3457031 531.176758,57.2695312 531.176758,52.7871094 L531.176758,52.2597656 L552.827148,52.2597656 L552.827148,49.6523438 C552.827148,40.1015625 547.055664,33.9199219 537.915039,33.9199219 C528.62793,33.9199219 522.768555,40.4238281 522.768555,50.4433594 C522.768555,60.4921875 528.569336,66.6738281 538.237305,66.6738281 Z M544.594727,47.015625 L531.264648,47.015625 C531.557617,43.0898438 534.25293,40.2480469 538.00293,40.2480469 C541.811523,40.2480469 544.418945,43.0019531 544.594727,47.015625 Z M572.192383,66 L577.84668,43.7929688 L578.022461,43.7929688 L583.706055,66 L592.817383,66 L601.137695,34.59375 L592.700195,34.59375 L587.924805,57.8847656 L587.749023,57.8847656 L582.15332,34.59375 L573.950195,34.59375 L568.383789,57.8847656 L568.208008,57.8847656 L563.461914,34.59375 L554.848633,34.59375 L563.198242,66 L572.192383,66 Z" id="FullScreenSafariView" fill="#2D2D2D" fill-rule="nonzero"></path>
    </g>
</svg>